<?xml version="1.0" encoding="UTF-8"?>
<svg xmlns="http://www.w3.org/2000/svg" width="24" height="24" viewBox="0 0 24 24" fill="none">
  <g id="credit-card-settings-outline">
    <path id="Vector" d="M20 8H4V6H20M20 18H4V12H20M20 4H4C2.89 4 2 4.89 2 6V18C2 18.5304 2.21071 19.0391 2.58579 19.4142C2.96086 19.7893 3.46957 20 4 20H20C20.5304 20 21.0391 19.7893 21.4142 19.4142C21.7893 19.0391 22 18.5304 22 18V6C22 4.89 21.1 4 20 4ZM7 22H9V24H7V22ZM11 22H13V24H11V22ZM15 22H17V24H15V22Z" fill="#76563C"></path>
  </g>
</svg>
