<?xml version="1.0" encoding="UTF-8"?>
<svg xmlns="http://www.w3.org/2000/svg" width="53" height="72" viewBox="0 0 53 72" fill="none">
  <g id="Group">
    <g id="Group_2">
      <path id="Vector" d="M36.0779 2.95304L36.0778 2.95299L33.4981 0.581784L36.0779 2.95304ZM36.0779 2.95304C36.3801 3.23062 36.5524 3.62418 36.5517 4.03713C36.5511 4.44924 36.3776 4.84224 36.0745 5.11932L30.4774 10.2311L30.4607 10.2463M36.0779 2.95304L30.4607 10.2463M30.4607 10.2463L30.4479 10.2648M30.4607 10.2463L30.4479 10.2648M30.4479 10.2648L27.6326 14.3269L27.5653 14.4242M30.4479 10.2648L27.5653 14.4242M27.5653 14.4242L27.618 14.5301M27.5653 14.4242L27.618 14.5301M27.618 14.5301L31.5863 22.4924L31.6368 22.5936M27.618 14.5301L31.6368 22.5936M31.6368 22.5936L31.7496 22.6025M31.6368 22.5936L31.7496 22.6025M31.7496 22.6025L38.6947 23.1515L38.6949 23.1516M31.7496 22.6025L38.6949 23.1516M38.6949 23.1516C39.0801 23.1815 39.4386 23.3661 39.689 23.664L39.8421 23.5353M38.6949 23.1516L39.8421 23.5353M39.8421 23.5353L39.689 23.664L41.9244 26.3228L41.9862 26.3963M39.8421 23.5353L41.9862 26.3963M41.9862 26.3963L42.0821 26.3941M41.9862 26.3963L42.0821 26.3941M42.0821 26.3941L49.2404 26.2277C49.9921 26.2101 50.6343 26.7741 50.7176 27.5294C50.7176 27.5294 50.7176 27.5294 50.7176 27.5295L52.691 45.5014L52.691 45.5014M42.0821 26.3941L52.691 45.5014M52.691 45.5014C52.7749 46.2633 52.2613 46.9594 51.5164 47.1009L44.9705 48.3438L44.8367 48.3692M52.691 45.5014L44.8367 48.3692M44.8367 48.3692L44.8113 48.5029M44.8367 48.3692L44.8113 48.5029M44.8113 48.5029L40.6151 70.6112M44.8113 48.5029L40.6151 70.6112M34.7591 68.8524L34.7592 68.8525L38.3246 71.5127L34.7591 68.8524ZM34.7591 68.8524C34.3343 68.5357 34.1133 68.0107 34.1835 67.482L34.5907 64.4184L34.6214 64.187M34.7591 68.8524L34.6214 64.187M34.6214 64.187L34.3881 64.1921M34.6214 64.187L34.3881 64.1921M34.3881 64.1921L26.2619 64.3666H26.2617M34.3881 64.1921L26.2617 64.3666M26.2617 64.3666C25.7976 64.3771 25.3561 64.1626 25.0744 63.7888L25.0744 63.7887M26.2617 64.3666L25.0744 63.7887M25.0744 63.7887L19.3252 56.1622L19.2949 56.1221M25.0744 63.7887L19.2949 56.1221M19.2949 56.1221L19.2491 56.101M19.2949 56.1221L19.2491 56.101M19.2491 56.101L1.14867 47.7613L1.14861 47.7613M19.2491 56.101L1.14861 47.7613M1.14861 47.7613C0.740241 47.5733 0.440321 47.2049 0.338392 46.7642L0.338343 46.764M1.14861 47.7613L0.338343 46.764M0.338343 46.764C0.235646 46.3222 0.341726 45.8579 0.625172 45.5072L0.625278 45.5071M0.338343 46.764L0.625278 45.5071M0.625278 45.5071L7.69136 36.7484L7.73765 36.691M0.625278 45.5071L7.73765 36.691M7.73765 36.691L7.73563 36.6173M7.73765 36.691L7.73563 36.6173M7.73563 36.6173L7.4634 26.6723L7.46158 26.6057M7.73563 36.6173L7.46158 26.6057M7.46158 26.6057L7.42016 26.5534M7.46158 26.6057L7.42016 26.5534M7.42016 26.5534L5.24015 23.8055C4.77916 23.2243 4.82469 22.3863 5.34597 21.8588L13.5932 13.5124L13.6226 13.4827M7.42016 26.5534L13.6226 13.4827M13.6226 13.4827L13.6376 13.4436M13.6226 13.4827L13.6376 13.4436M13.6376 13.4436L15.5535 8.45962C15.7133 8.04432 16.0527 7.72445 16.4743 7.59207L16.4746 7.592M13.6376 13.4436L16.4746 7.592M16.4746 7.592L24.3477 5.11L24.3727 5.10215M16.4746 7.592L24.3727 5.10215M24.3727 5.10215L24.3947 5.08814M24.3727 5.10215L24.3947 5.08814M24.3947 5.08814L31.7455 0.425059M24.3947 5.08814L31.7455 0.425059M32.3572 3.49521L32.4701 3.59892L32.78 3.88345L32.9408 4.03115L32.7796 4.17843L28.3896 8.18824L32.3572 3.49521ZM32.3572 3.49521L32.2277 3.57736M32.3572 3.49521L32.2277 3.57736M32.2277 3.57736L25.7602 7.68092C25.7601 7.68097 25.7601 7.68101 25.76 7.68105C25.6537 7.74822 25.5397 7.80108 25.4196 7.83899C25.4196 7.839 25.4196 7.83901 25.4196 7.83902L18.1005 10.1464L18.0086 10.1754L17.974 10.2654L16.2204 14.8267C16.1476 15.0157 16.0366 15.1876 15.8952 15.3307L15.8952 15.3307L8.44324 22.8725L8.3187 22.9985L8.42882 23.1374L10.0341 25.1609C10.2313 25.4099 10.3425 25.7165 10.3517 26.0347L10.3517 26.0349L10.6556 37.1535L10.6556 37.1536C10.6654 37.5035 10.5497 37.8454 10.3304 38.1165L10.3303 38.1167L4.22398 45.686L4.0628 45.8858L4.29596 45.9933L20.8338 53.6123M32.2277 3.57736L27.0379 61.2221M27.0379 61.2221L21.5461 53.9381C21.3816 53.7189 21.1655 53.5451 20.9176 53.4307L20.8338 53.6123M27.0379 61.2221L36.2501 61.0245M27.0379 61.2221L36.2501 61.0245M20.8338 53.6123C20.8338 53.6123 20.8339 53.6123 20.8339 53.6123C21.0519 53.713 21.2418 53.8657 21.3862 54.0581L21.3864 54.0585L26.8782 61.3425L26.9398 61.4243L27.0422 61.4221L36.2544 61.2245C36.678 61.2153 37.0844 61.3927 37.3672 61.7114L37.3673 61.7116C37.6501 62.0297 37.7808 62.4573 37.7243 62.8813L37.7243 62.8814L37.1916 66.8975L37.1762 67.0138L37.2702 67.0841L37.9401 67.584L38.1966 67.7754L38.2562 67.461L42.1699 46.8399L42.17 46.8398C42.2817 46.2484 42.7414 45.7876 43.3268 45.6768L43.3269 45.6768L49.4745 44.5097L49.6562 44.4752L49.636 44.2914L47.9975 29.3675L47.9774 29.1851L47.794 29.1893L41.3611 29.3394C40.9224 29.3492 40.503 29.1594 40.2195 28.8223L37.9184 26.0862L37.8646 26.0221L37.7811 26.0155L30.5941 25.4472L30.594 25.4472C30.0876 25.4075 29.638 25.1035 29.4094 24.6451M20.8338 53.6123L29.4094 24.6451M29.4094 24.6451L24.5817 14.9586L24.5816 14.9585C24.342 14.4785 24.383 13.9042 24.6887 13.4636L24.6888 13.4635L28.1739 8.43487L28.174 8.43463C28.2358 8.34524 28.3083 8.26292 28.3893 8.18855L29.4094 24.6451ZM40.6151 70.6112C40.5208 71.1059 40.1811 71.5168 39.7163 71.7002C39.2513 71.8827 38.726 71.8117 38.3247 71.5128L40.6151 70.6112ZM31.7455 0.425059C32.2983 0.0746204 33.0149 0.138413 33.498 0.581683L31.7455 0.425059ZM36.2501 61.0245C36.7325 61.0141 37.1951 61.2162 37.5168 61.5787L36.2501 61.0245Z" fill="#76563C" stroke="white" stroke-width="0.4"></path>
    </g>
  </g>
</svg>
