<?xml version="1.0" encoding="UTF-8"?>
<svg xmlns="http://www.w3.org/2000/svg" width="54" height="72" viewBox="0 0 54 72" fill="none">
  <g id="Group">
    <g id="Group_2">
      <path id="Vector" d="M36.578 2.95304L36.578 2.95299L33.9982 0.581784L36.578 2.95304ZM36.578 2.95304C36.8803 3.23062 37.0525 3.62418 37.0518 4.03713C37.0512 4.44924 36.8777 4.84224 36.5747 5.11932L30.9775 10.2311L30.9608 10.2463M36.578 2.95304L30.9608 10.2463M30.9608 10.2463L30.948 10.2648M30.9608 10.2463L30.948 10.2648M30.948 10.2648L28.1328 14.3269L28.0654 14.4242M30.948 10.2648L28.0654 14.4242M28.0654 14.4242L28.1181 14.5301M28.0654 14.4242L28.1181 14.5301M28.1181 14.5301L32.0865 22.4924L32.1369 22.5936M28.1181 14.5301L32.1369 22.5936M32.1369 22.5936L32.2497 22.6025M32.1369 22.5936L32.2497 22.6025M32.2497 22.6025L39.1948 23.1515L39.195 23.1516M32.2497 22.6025L39.195 23.1516M39.195 23.1516C39.5802 23.1815 39.9387 23.3661 40.1892 23.664L40.3422 23.5353M39.195 23.1516L40.3422 23.5353M40.3422 23.5353L40.1892 23.664L42.4245 26.3228L42.4863 26.3963M40.3422 23.5353L42.4863 26.3963M42.4863 26.3963L42.5822 26.3941M42.4863 26.3963L42.5822 26.3941M42.5822 26.3941L49.7406 26.2277C50.4922 26.2101 51.1344 26.7741 51.2177 27.5294C51.2177 27.5294 51.2177 27.5294 51.2177 27.5295L53.1911 45.5014L53.1911 45.5014M42.5822 26.3941L53.1911 45.5014M53.1911 45.5014C53.275 46.2633 52.7614 46.9594 52.0166 47.1009L45.4706 48.3438L45.3368 48.3692M53.1911 45.5014L45.3368 48.3692M45.3368 48.3692L45.3114 48.5029M45.3368 48.3692L45.3114 48.5029M45.3114 48.5029L41.1152 70.6112M45.3114 48.5029L41.1152 70.6112M35.2592 68.8524L35.2593 68.8525L38.8247 71.5127L35.2592 68.8524ZM35.2592 68.8524C34.8344 68.5357 34.6134 68.0107 34.6836 67.482L35.0908 64.4184L35.1216 64.187M35.2592 68.8524L35.1216 64.187M35.1216 64.187L34.8883 64.1921M35.1216 64.187L34.8883 64.1921M34.8883 64.1921L26.762 64.3666H26.7618M34.8883 64.1921L26.7618 64.3666M26.7618 64.3666C26.2977 64.3771 25.8562 64.1626 25.5745 63.7888L25.5745 63.7887M26.7618 64.3666L25.5745 63.7887M25.5745 63.7887L19.8253 56.1622L19.795 56.1221M25.5745 63.7887L19.795 56.1221M19.795 56.1221L19.7493 56.101M19.795 56.1221L19.7493 56.101M19.7493 56.101L1.64879 47.7613L1.64873 47.7613M19.7493 56.101L1.64873 47.7613M1.64873 47.7613C1.24036 47.5733 0.940443 47.2049 0.838514 46.7642L0.838466 46.764M1.64873 47.7613L0.838466 46.764M0.838466 46.764C0.735768 46.3222 0.841848 45.8579 1.12529 45.5072L1.1254 45.5071M0.838466 46.764L1.1254 45.5071M1.1254 45.5071L8.19148 36.7484L8.23777 36.691M1.1254 45.5071L8.23777 36.691M8.23777 36.691L8.23575 36.6173M8.23777 36.691L8.23575 36.6173M8.23575 36.6173L7.96352 26.6723L7.9617 26.6057M8.23575 36.6173L7.9617 26.6057M7.9617 26.6057L7.92028 26.5534M7.9617 26.6057L7.92028 26.5534M7.92028 26.5534L5.74027 23.8055C5.27928 23.2243 5.32481 22.3863 5.84609 21.8588L14.0933 13.5124L14.1227 13.4827M7.92028 26.5534L14.1227 13.4827M14.1227 13.4827L14.1377 13.4436M14.1227 13.4827L14.1377 13.4436M14.1377 13.4436L16.0536 8.45962C16.2134 8.04432 16.5529 7.72445 16.9745 7.59207L16.9747 7.592M14.1377 13.4436L16.9747 7.592M16.9747 7.592L24.8478 5.11L24.8728 5.10215M16.9747 7.592L24.8728 5.10215M24.8728 5.10215L24.8948 5.08814M24.8728 5.10215L24.8948 5.08814M24.8948 5.08814L32.2456 0.425059M24.8948 5.08814L32.2456 0.425059M32.8573 3.49521L32.9703 3.59892L33.2801 3.88345L33.441 4.03115L33.2797 4.17843L28.8898 8.18824L32.8573 3.49521ZM32.8573 3.49521L32.7278 3.57736M32.8573 3.49521L32.7278 3.57736M32.7278 3.57736L26.2603 7.68092C26.2602 7.68097 26.2602 7.68101 26.2601 7.68105C26.1539 7.74822 26.0398 7.80108 25.9198 7.83899C25.9197 7.839 25.9197 7.83901 25.9197 7.83902L18.6006 10.1464L18.5087 10.1754L18.4741 10.2654L16.7205 14.8267C16.6478 15.0157 16.5367 15.1876 16.3953 15.3307L16.3953 15.3307L8.94337 22.8725L8.81882 22.9985L8.92895 23.1374L10.5342 25.1609C10.7315 25.4099 10.8426 25.7165 10.8518 26.0347L10.8518 26.0349L11.1557 37.1535L11.1557 37.1536C11.1655 37.5035 11.0499 37.8454 10.8305 38.1165L10.8304 38.1167L4.72411 45.686L4.56292 45.8858L4.79608 45.9933L21.3339 53.6123M32.7278 3.57736L27.538 61.2221M27.538 61.2221L22.0463 53.9381C21.8818 53.7189 21.6656 53.5451 21.4177 53.4307L21.3339 53.6123M27.538 61.2221L36.7502 61.0245M27.538 61.2221L36.7502 61.0245M21.3339 53.6123C21.3339 53.6123 21.334 53.6123 21.334 53.6123C21.552 53.713 21.7419 53.8657 21.8863 54.0581L21.8866 54.0585L27.3783 61.3425L27.4399 61.4243L27.5423 61.4221L36.7545 61.2245C37.1782 61.2153 37.5845 61.3927 37.8673 61.7114L37.8674 61.7116C38.1503 62.0297 38.2809 62.4573 38.2244 62.8813L38.2244 62.8814L37.6917 66.8975L37.6763 67.0138L37.7704 67.0841L38.4402 67.584L38.6967 67.7754L38.7564 67.461L42.6701 46.8399L42.6701 46.8398C42.7818 46.2484 43.2415 45.7876 43.8269 45.6768L43.827 45.6768L49.9746 44.5097L50.1563 44.4752L50.1361 44.2914L48.4976 29.3675L48.4776 29.1851L48.2941 29.1893L41.8612 29.3394C41.4225 29.3492 41.0031 29.1594 40.7196 28.8223L38.4186 26.0862L38.3647 26.0221L38.2813 26.0155L31.0942 25.4472L31.0941 25.4472C30.5877 25.4075 30.1382 25.1035 29.9096 24.6451M21.3339 53.6123L29.9096 24.6451M29.9096 24.6451L25.0818 14.9586L25.0817 14.9585C24.8421 14.4785 24.8831 13.9042 25.1888 13.4636L25.1889 13.4635L28.674 8.43487L28.6742 8.43463C28.7359 8.34524 28.8084 8.26292 28.8894 8.18855L29.9096 24.6451ZM41.1152 70.6112C41.021 71.1059 40.6812 71.5168 40.2164 71.7002C39.7515 71.8827 39.2261 71.8117 38.8248 71.5128L41.1152 70.6112ZM32.2456 0.425059C32.7984 0.0746204 33.515 0.138413 33.9981 0.581683L32.2456 0.425059ZM36.7502 61.0245C37.2327 61.0141 37.6952 61.2162 38.0169 61.5787L36.7502 61.0245Z" fill="#76563C" stroke="white" stroke-width="0.4"></path>
    </g>
  </g>
</svg>
