<?xml version="1.0" encoding="UTF-8"?>
<svg xmlns="http://www.w3.org/2000/svg" width="90" height="49" viewBox="0 0 90 49" fill="none">
  <g id="Logo">
    <path id="Union" fill-rule="evenodd" clip-rule="evenodd" d="M46.139 5.22765H22.9717V0H46.139V5.22765ZM0 9.32743H5.06935V18.3176H13.8321V9.32743H18.9014V32.9312H13.8321V22.9171H5.06935V32.9312H0V9.32743ZM26.0814 12.2641C27.5641 10.6708 30.297 8.79908 34.6764 8.79908C38.0992 8.79908 40.9655 9.92951 43.1724 12.2313C45.2459 14.3898 46.5989 17.5025 46.5989 21.1477C46.5989 24.2973 45.5432 27.5166 43.1724 29.9945C41.1294 32.1161 38.366 33.4636 34.6764 33.4636C30.56 33.4636 27.7585 31.6942 26.1119 29.9945C24.0041 27.8688 22.6892 24.6864 22.6892 21.2174C22.6892 17.822 24.1032 14.3898 26.0814 12.2641ZM39.4828 15.8397C38.3965 14.7051 36.6508 13.8205 34.6421 13.8205C32.7326 13.8205 31.0212 14.5659 29.8358 15.8397C28.8791 16.8308 27.8919 18.5633 27.8919 21.1846C27.8919 23.343 28.5513 25.0755 29.9006 26.4927C31.3185 27.9426 32.8965 28.4381 34.6116 28.4381C36.849 28.4381 38.4308 27.5535 39.4828 26.4189C40.3404 25.5343 41.3924 23.8714 41.3924 21.1477C41.3924 18.7067 40.47 16.9004 39.4828 15.8397ZM50.3838 9.32743H55.4532V19.1654L62.9619 9.32743H69.1556L60.2633 20.5088L69.8455 32.9312H63.324L55.4532 22.4584V32.9312H50.3838V9.32743ZM84.9269 9.32743H90V23.3062C90 25.5711 89.737 28.3644 87.5606 30.7727C85.4529 33.1073 83.0173 33.4636 80.7113 33.4636C78.4053 33.4636 75.9697 33.1073 73.8619 30.7727C71.6894 28.3644 71.4264 25.5711 71.4264 23.3062V9.32743H76.4957V23.1628C76.4957 24.1909 76.5643 25.9234 77.6506 27.1275C78.5387 28.1555 79.7584 28.3644 80.7113 28.3644C81.668 28.3644 82.8839 28.1555 83.7758 27.1275C84.862 25.9234 84.9269 24.1909 84.9269 23.1628V9.32743ZM51.4336 36.218L49.8785 41.6449H51.1096L51.3421 40.8626H52.9506L53.1755 41.6449H54.399L52.8439 36.218H51.4336ZM52.1578 37.9874L52.6152 39.6544H51.6776L52.1578 37.9874ZM58.9843 39.3554L58.2677 36.218H57.0366L58.3973 41.6449H59.3807L60.2345 38.7041L61.0844 41.6449H62.0602L63.4895 36.218H62.266L61.4808 39.3554L60.73 36.218H59.7885L58.9843 39.3554ZM65.2343 36.218L63.6792 41.6449H64.9103L65.1428 40.8626H66.7513L66.9761 41.6449H68.1996L66.6445 36.218H65.2343ZM65.9585 37.9874L66.4158 39.6544H65.4782L65.9585 37.9874ZM69.8119 36.218H68.4321L70.033 38.8925V41.6449H71.2565V38.8925L72.8688 36.218H71.4242L70.6467 37.6311L69.8119 36.218ZM52.8938 42.9739V44.1371H51.4073V45.0996H52.8138V46.2628H51.4073V48.4008H50.1762V42.9739H52.8938ZM56.0288 42.9125C57.4619 42.9125 58.6245 44.1576 58.6245 45.7017C58.6245 47.2458 57.4619 48.4909 56.0288 48.4909C54.5918 48.4909 53.4293 47.2458 53.4293 45.7017C53.4293 44.1576 54.5918 42.9125 56.0288 42.9125ZM56.0288 44.2109C55.2627 44.2109 54.649 44.8744 54.649 45.6935C54.649 46.5168 55.2627 47.1762 56.0288 47.1762C56.7911 47.1762 57.4048 46.5168 57.4048 45.6935C57.4048 44.8744 56.7911 44.2109 56.0288 44.2109ZM60.4959 46.3939V48.4008H59.2648V42.9739H61.1553C62.0587 42.9739 62.7752 43.6211 62.7752 44.6819C62.7752 45.4969 62.3483 46.0662 61.7499 46.2874L63.023 48.4008H61.6775L60.4959 46.3939ZM60.4959 44.1371V45.2225H61.041C61.3954 45.2225 61.5517 45.0013 61.5517 44.6819C61.5517 44.3624 61.3535 44.1371 61.041 44.1371H60.4959ZM67.3786 42.9739V47.2376H68.7317V48.4008H66.1475V42.9739H67.3786ZM70.7251 42.9739V48.4008H69.494V42.9739H70.7251ZM71.3055 42.9739H72.5366L73.7944 46.6847L75.0598 42.9739H76.2833L74.4119 48.4008H73.1884L71.3055 42.9739ZM78.089 42.9739V48.4008H76.8579V42.9739H78.089ZM80.1406 42.9739L82.6524 46.1645V42.9739H83.8835V48.4008H82.6524L80.2473 45.2553V48.4008H79.0162V42.9739H80.1406ZM89.2016 44.0593L88.2106 44.7884C87.9552 44.4402 87.5664 44.2109 87.1205 44.2109C86.3582 44.2109 85.7407 44.8744 85.7407 45.6935C85.7407 46.5168 86.3582 47.1762 87.1205 47.1762C87.6465 47.1762 88.0962 46.8649 88.3326 46.4021H87.2272V45.3904H89.6818C89.6895 45.4887 89.6971 45.5952 89.6971 45.7017C89.6971 47.2458 88.5346 48.4909 87.1014 48.4909C85.6645 48.4909 84.5058 47.2458 84.5058 45.7017C84.5058 44.1576 85.6645 42.9125 87.1014 42.9125C87.9552 42.9125 88.7213 43.3589 89.2016 44.0593Z" fill="#F8EFEE"></path>
  </g>
</svg>
