<?xml version="1.0" encoding="UTF-8"?>
<svg xmlns="http://www.w3.org/2000/svg" width="29" height="30" viewBox="0 0 29 30" fill="none">
  <g id="Call">
    <path id="Vector" d="M8.17444 13.3867C9.93444 17.16 12.77 20.2533 16.2289 22.1733L18.9178 19.24C19.26 18.8667 19.7367 18.76 20.1644 18.9067C21.5333 19.4 23 19.6667 24.5278 19.6667C24.8519 19.6667 25.1628 19.8071 25.392 20.0572C25.6212 20.3072 25.75 20.6464 25.75 21V25.6667C25.75 26.0203 25.6212 26.3594 25.392 26.6095C25.1628 26.8595 24.8519 27 24.5278 27C19.0172 27 13.7323 24.6119 9.83567 20.3611C5.93908 16.1103 3.75 10.3449 3.75 4.33333C3.75 3.97971 3.87877 3.64057 4.10798 3.39052C4.33719 3.14048 4.64807 3 4.97222 3H9.25C9.57415 3 9.88503 3.14048 10.1142 3.39052C10.3435 3.64057 10.4722 3.97971 10.4722 4.33333C10.4722 6 10.7167 7.6 11.1689 9.09333C11.3033 9.56 11.2056 10.08 10.8633 10.4533L8.17444 13.3867Z" fill="#76563C"></path>
  </g>
</svg>
