<?xml version="1.0" encoding="UTF-8"?>
<svg xmlns="http://www.w3.org/2000/svg" width="28" height="29" viewBox="0 0 28 29" fill="none">
  <g id="local_mall">
    <mask id="mask0_336_6696" style="mask-type:alpha" maskUnits="userSpaceOnUse" x="0" y="0" width="28" height="29">
      <rect id="Bounding box" y="0.5" width="28" height="28" fill="#D9D9D9"></rect>
    </mask>
    <g mask="url(#mask0_336_6696)">
      <path id="local_mall_2" d="M5.83333 26.167C5.19167 26.167 4.64236 25.9385 4.18542 25.4816C3.72847 25.0246 3.5 24.4753 3.5 23.8337V9.83366C3.5 9.19199 3.72847 8.64269 4.18542 8.18574C4.64236 7.7288 5.19167 7.50033 5.83333 7.50033H8.16667C8.16667 5.88644 8.73542 4.51074 9.87292 3.37324C11.0104 2.23574 12.3861 1.66699 14 1.66699C15.6139 1.66699 16.9896 2.23574 18.1271 3.37324C19.2646 4.51074 19.8333 5.88644 19.8333 7.50033H22.1667C22.8083 7.50033 23.3576 7.7288 23.8146 8.18574C24.2715 8.64269 24.5 9.19199 24.5 9.83366V23.8337C24.5 24.4753 24.2715 25.0246 23.8146 25.4816C23.3576 25.9385 22.8083 26.167 22.1667 26.167H5.83333ZM5.83333 23.8337H22.1667V9.83366H5.83333V23.8337ZM14 16.8337C15.6139 16.8337 16.9896 16.2649 18.1271 15.1274C19.2646 13.9899 19.8333 12.6142 19.8333 11.0003H17.5C17.5 11.9725 17.1597 12.7989 16.4792 13.4795C15.7986 14.16 14.9722 14.5003 14 14.5003C13.0278 14.5003 12.2014 14.16 11.5208 13.4795C10.8403 12.7989 10.5 11.9725 10.5 11.0003H8.16667C8.16667 12.6142 8.73542 13.9899 9.87292 15.1274C11.0104 16.2649 12.3861 16.8337 14 16.8337ZM10.5 7.50033H17.5C17.5 6.5281 17.1597 5.70171 16.4792 5.02116C15.7986 4.3406 14.9722 4.00033 14 4.00033C13.0278 4.00033 12.2014 4.3406 11.5208 5.02116C10.8403 5.70171 10.5 6.5281 10.5 7.50033Z" fill="#F8EFEE"></path>
    </g>
  </g>
</svg>
