<?xml version="1.0" encoding="UTF-8"?>
<svg xmlns="http://www.w3.org/2000/svg" width="28" height="29" viewBox="0 0 28 29" fill="none">
  <g id="account_circle">
    <mask id="mask0_336_6690" style="mask-type:alpha" maskUnits="userSpaceOnUse" x="0" y="0" width="28" height="29">
      <rect id="Bounding box" y="0.5" width="28" height="28" fill="#D9D9D9"></rect>
    </mask>
    <g mask="url(#mask0_336_6690)">
      <path id="account_circle_2" d="M6.82495 20.4497C7.81662 19.6913 8.92495 19.0934 10.15 18.6559C11.375 18.2184 12.6583 17.9997 14 17.9997C15.3416 17.9997 16.625 18.2184 17.85 18.6559C19.075 19.0934 20.1833 19.6913 21.1749 20.4497C21.8555 19.6525 22.3854 18.7483 22.7645 17.7372C23.1437 16.7261 23.3333 15.6469 23.3333 14.4997C23.3333 11.9136 22.4243 9.71148 20.6062 7.89342C18.7881 6.07537 16.5861 5.16634 14 5.16634C11.4138 5.16634 9.21176 6.07537 7.3937 7.89342C5.57564 9.71148 4.66662 11.9136 4.66662 14.4997C4.66662 15.6469 4.8562 16.7261 5.23537 17.7372C5.61453 18.7483 6.14439 19.6525 6.82495 20.4497ZM14 15.6663C12.8527 15.6663 11.8854 15.2726 11.0979 14.4851C10.3104 13.6976 9.91662 12.7302 9.91662 11.583C9.91662 10.4358 10.3104 9.46843 11.0979 8.68093C11.8854 7.89342 12.8527 7.49967 14 7.49967C15.1472 7.49967 16.1145 7.89342 16.902 8.68093C17.6895 9.46843 18.0833 10.4358 18.0833 11.583C18.0833 12.7302 17.6895 13.6976 16.902 14.4851C16.1145 15.2726 15.1472 15.6663 14 15.6663ZM14 26.1663C12.3861 26.1663 10.8694 25.8601 9.44995 25.2476C8.0305 24.6351 6.79578 23.8038 5.74578 22.7538C4.69578 21.7038 3.86453 20.4691 3.25203 19.0497C2.63953 17.6302 2.33328 16.1136 2.33328 14.4997C2.33328 12.8858 2.63953 11.3691 3.25203 9.94968C3.86453 8.53023 4.69578 7.29551 5.74578 6.24551C6.79578 5.19551 8.0305 4.36426 9.44995 3.75176C10.8694 3.13926 12.3861 2.83301 14 2.83301C15.6138 2.83301 17.1305 3.13926 18.55 3.75176C19.9694 4.36426 21.2041 5.19551 22.2541 6.24551C23.3041 7.29551 24.1354 8.53023 24.7479 9.94968C25.3604 11.3691 25.6666 12.8858 25.6666 14.4997C25.6666 16.1136 25.3604 17.6302 24.7479 19.0497C24.1354 20.4691 23.3041 21.7038 22.2541 22.7538C21.2041 23.8038 19.9694 24.6351 18.55 25.2476C17.1305 25.8601 15.6138 26.1663 14 26.1663ZM14 23.833C15.0305 23.833 16.0027 23.6823 16.9166 23.3809C17.8305 23.0795 18.6666 22.6469 19.425 22.083C18.6666 21.5191 17.8305 21.0865 16.9166 20.7851C16.0027 20.4837 15.0305 20.333 14 20.333C12.9694 20.333 11.9972 20.4837 11.0833 20.7851C10.1694 21.0865 9.33328 21.5191 8.57495 22.083C9.33328 22.6469 10.1694 23.0795 11.0833 23.3809C11.9972 23.6823 12.9694 23.833 14 23.833ZM14 13.333C14.5055 13.333 14.9236 13.1677 15.2541 12.8372C15.5847 12.5066 15.75 12.0886 15.75 11.583C15.75 11.0775 15.5847 10.6594 15.2541 10.3288C14.9236 9.99829 14.5055 9.83301 14 9.83301C13.4944 9.83301 13.0763 9.99829 12.7458 10.3288C12.4152 10.6594 12.2499 11.0775 12.2499 11.583C12.2499 12.0886 12.4152 12.5066 12.7458 12.8372C13.0763 13.1677 13.4944 13.333 14 13.333Z" fill="#F8EFEE"></path>
    </g>
  </g>
</svg>
