<?xml version="1.0" encoding="UTF-8"?>
<svg xmlns="http://www.w3.org/2000/svg" width="49" height="60" viewBox="0 0 49 60" fill="none">
  <path id="Vector" d="M24.1366 0.755974L24.1365 0.755914C23.8986 0.818669 23.6806 0.942185 23.5037 1.1147C19.8379 4.69787 14.9309 6.70429 9.81883 6.70897L9.81856 6.70897C7.39922 6.70897 5.00235 6.24085 2.75072 5.35559C2.534 5.27048 2.29998 5.23988 2.06893 5.26639C1.83788 5.2929 1.61662 5.37574 1.42438 5.50786C1.23213 5.63998 1.07466 5.81743 0.965784 6.02493C0.856906 6.23244 0.799965 6.46365 0.8 6.69848V6.69853V35.6752C0.8 39.1879 2.29167 42.3705 4.51328 45.2C6.73561 48.0305 9.67458 50.4897 12.5335 52.5485L12.3582 52.7919L12.5335 52.5485C15.3884 54.6045 18.237 56.2626 20.3728 57.4069C21.4404 57.9789 22.3291 58.4221 22.9503 58.722C23.2609 58.872 23.5046 58.9861 23.6704 59.0627C23.7532 59.1009 23.8166 59.1297 23.8591 59.149L23.907 59.1705L23.9188 59.1758L23.9217 59.1771L23.9224 59.1774L23.9225 59.1774L23.9227 59.1775C24.1047 59.2583 24.3013 59.3 24.5 59.3C24.6987 59.3 24.8953 59.2583 25.0773 59.1775L25.0775 59.1774L25.0776 59.1774L25.0783 59.1771L25.0812 59.1758L25.093 59.1705L25.1409 59.149C25.1834 59.1297 25.2468 59.1009 25.3296 59.0627C25.4954 58.9861 25.7391 58.872 26.0497 58.722C26.671 58.4221 27.5597 57.9789 28.6273 57.4069C30.7632 56.2626 33.612 54.6045 36.4671 52.5485C39.3257 50.4897 42.2645 48.0305 44.4868 45.2C46.7083 42.3705 48.2 39.188 48.2 35.6752V6.69853C48.2 6.46376 48.1431 6.23262 48.0342 6.02518C47.9254 5.81774 47.768 5.64033 47.5758 5.50822C47.3836 5.37612 47.1624 5.29326 46.9314 5.26669C46.7005 5.24013 46.4666 5.27063 46.2499 5.35559C46.2499 5.35561 46.2499 5.35562 46.2498 5.35564L46.1403 5.07636C43.9218 5.94766 41.5628 6.3991 39.1814 6.40897L24.1366 0.755974ZM24.1366 0.755974L24.1424 0.754307C24.2245 0.730871 24.3084 0.714899 24.3932 0.706541L24.1366 0.755974ZM30.0784 22.9872L30.0597 22.9863C29.8454 22.9754 29.6314 23.0132 29.4335 23.097C29.2357 23.1808 29.0589 23.3083 28.9165 23.4704L22.8397 30.3959L22.6213 30.6448L22.3951 30.4028L19.4387 27.2401L19.4385 27.2398C19.1787 26.9613 18.82 26.7983 18.4414 26.7861C18.0628 26.7739 17.6945 26.9134 17.4176 27.1745L17.4176 27.1745C17.2804 27.3039 17.1699 27.4593 17.0922 27.6318C17.0146 27.8044 16.9716 27.9907 16.9655 28.1801C16.9595 28.3695 16.9906 28.5582 17.0571 28.7355C17.1235 28.9126 17.2239 29.0748 17.3525 29.2127L30.0784 22.9872ZM30.0784 22.9872L30.0971 22.9858M30.0784 22.9872L30.0971 22.9858M30.0971 22.9858C30.1562 22.9814 30.2203 22.9825 30.2897 22.9871M30.0971 22.9858L30.2897 22.9871M30.2897 22.9871C30.5285 23.039 30.7504 23.1518 30.9339 23.3148L30.2897 22.9871ZM25.199 59.4517C25.199 59.4517 30.9044 56.924 36.6425 52.7919L23.801 59.4517C24.0212 59.5495 24.2593 59.6 24.5 59.6C24.7407 59.6 24.9788 59.5495 25.199 59.4517ZM24.6923 4.24928L24.6084 4.17816H24.4984H24.4814H24.3713L24.2874 4.2493C20.2445 7.67576 15.1188 9.57895 9.79931 9.58299C7.84763 9.57513 5.90948 9.31021 4.03062 8.7973L3.65161 8.69384V9.08671V35.668C3.65161 38.3077 4.9501 40.972 6.89746 43.4459C8.84824 45.9242 11.4743 48.2423 14.1874 50.1964L14.3627 49.953L14.1874 50.1964C18.5946 53.3701 22.8559 55.4882 24.3615 56.2008L24.4898 56.2616L24.6182 56.2008C26.1245 55.4882 30.3858 53.3701 34.793 50.1964L34.793 50.1964C37.5058 48.2423 40.132 45.9242 42.083 43.4459C44.0306 40.972 45.3294 38.3077 45.3294 35.668V9.08671V8.69514L44.9513 8.79705C43.0702 9.30407 41.1313 9.58297 39.1817 9.58299C33.8626 9.57909 28.736 7.67589 24.6923 4.24928ZM21.6075 33.7665L17.3527 29.2129L30.9341 23.315C31.2182 23.5679 31.3913 23.9243 31.4147 24.306C31.4381 24.6879 31.3098 25.0631 31.0584 25.3494L31.0583 25.3495L23.724 33.7097L23.722 33.7121C23.5916 33.8638 23.4312 33.9864 23.2512 34.072C23.0712 34.1576 22.8755 34.2044 22.6766 34.2096C22.4777 34.2147 22.2799 34.178 22.0958 34.1017C21.9122 34.0256 21.7462 33.9119 21.6085 33.7676C21.6081 33.7672 21.6078 33.7669 21.6075 33.7665ZM9.83529 28.791C9.83529 20.6625 16.4227 14.0387 24.4984 14.0387C32.5747 14.0387 39.1621 20.6625 39.1621 28.791C39.1621 36.9188 32.5747 43.5427 24.4984 43.5427C16.4227 43.5427 9.83529 36.9188 9.83529 28.791ZM36.3 28.791C36.3 22.2166 31.0384 16.9213 24.4984 16.9213C17.959 16.9213 12.6974 22.2166 12.6974 28.791C12.6974 35.3647 17.959 40.6601 24.4984 40.6601C31.0384 40.6601 36.3 35.3648 36.3 28.791Z" fill="#76563C" stroke="white" stroke-width="0.6"></path>
</svg>
