<?xml version="1.0" encoding="UTF-8"?>
<svg xmlns="http://www.w3.org/2000/svg" width="73" height="28" viewBox="0 0 73 28" fill="none">
  <path id="Vector" d="M72.3456 9.51376L72.3448 9.5265L72.3462 9.53919C72.3512 9.58608 72.3512 9.63337 72.3462 9.68025L72.3443 9.69774L72.3465 9.71518C72.3509 9.75008 72.3512 9.78541 72.3472 9.82035C70.9264 16.6314 65.6148 20.9654 59.7652 23.6359C53.9168 26.3058 47.5596 27.2984 44.1104 27.4405H43.2912C38.1476 27.4405 27.7125 26.003 23.8035 25.4645C23.5657 25.4317 23.352 25.4023 23.1652 25.3767L23.0636 25.3628L23.0137 25.4524L22.2164 26.8869L22.2163 26.887C22.1107 27.0775 21.9498 27.2323 21.7543 27.3312C21.5589 27.4301 21.3379 27.4686 21.12 27.4416L21.1189 27.4415L2.20651 25.2403C2.20649 25.2403 2.20646 25.2403 2.20644 25.2403C1.93886 25.2082 1.69278 25.0795 1.51504 24.879C1.33731 24.6785 1.2403 24.4203 1.24225 24.1537V24.1526V21.9267V21.9164L1.24084 21.9062L0.743144 18.3C0.619025 16.57 0.618952 14.8334 0.742927 13.1034C0.767843 12.9685 0.847917 12.7335 0.980588 12.4082C1.11394 12.0814 1.29554 11.6749 1.51385 11.2091C1.95036 10.2778 2.53111 9.11491 3.16 7.88811C4.41764 5.43481 5.86541 2.73077 6.73123 1.1233C6.86205 0.881304 7.08055 0.697172 7.34302 0.608314C7.60532 0.519513 7.89178 0.532567 8.14472 0.644789C8.48807 0.802023 11.3223 2.06414 14.9711 3.68902C21.8482 6.75148 31.6191 11.1026 33.0613 11.7738C33.3389 11.9031 33.7178 11.9711 34.1523 11.9974C34.5898 12.0239 35.0966 12.0087 35.6382 11.9635C36.7215 11.8731 37.9558 11.6615 39.0751 11.4133L39.3799 11.3457L39.1367 11.15C38.8136 10.89 38.4613 10.6681 38.0867 10.4889C37.5787 10.2365 36.1346 9.27297 34.9408 8.11101C34.3438 7.52998 33.8179 6.9074 33.502 6.3072C33.1851 5.70507 33.0931 5.1534 33.3103 4.68966L33.3103 4.68952C33.4719 4.34353 33.7091 4.13851 33.9869 4.02484C34.2691 3.9094 34.602 3.88479 34.954 3.91899C35.6602 3.98759 36.3974 4.28747 36.8536 4.47976C37.9556 4.94804 39.6765 5.33511 41.6558 5.65467C43.6388 5.97484 45.8938 6.22911 48.0712 6.4279C52.4262 6.82551 56.4784 7.00186 57.4389 7.039L57.4649 7.04001L57.4896 7.03223L67.9084 3.76202H68.1458C68.2713 3.76432 68.396 3.78313 68.5166 3.81796L68.537 3.82385H68.5582H68.6298C68.7349 3.86595 68.8341 3.92132 68.925 3.98857C69.0078 4.06127 69.0774 4.14743 69.1309 4.24318V4.24344V4.2437V4.24395V4.24421V4.24447V4.24473V4.24499V4.24525V4.24551V4.24576V4.24602V4.24628V4.24654V4.2468V4.24705V4.24731V4.24757V4.24783V4.24808V4.24834V4.2486V4.24886V4.24911V4.24937V4.24963V4.24988V4.25014V4.2504V4.25065V4.25091V4.25117V4.25142V4.25168V4.25193V4.25219V4.25244V4.2527V4.25295V4.25321V4.25346V4.25372V4.25397V4.25423V4.25448V4.25473V4.25499V4.25524V4.25549V4.25575V4.256V4.25625V4.2565V4.25676V4.25701V4.25726V4.25751V4.25776V4.25801V4.25826V4.25851V4.25876V4.25901V4.25926V4.25951V4.25976V4.26001V4.26026V4.26051V4.26075V4.261V4.26125V4.2615V4.26174V4.26199V4.26224V4.26248V4.26273V4.26297V4.26322V4.26346V4.2637V4.26395V4.26419V4.26444V4.26468V4.26492V4.26516V4.2654V4.26564V4.26589V4.26613V4.26637V4.26661V4.26685V4.26708V4.26732V4.26756V4.2678V4.26804V4.26827V4.26851V4.26875V4.26898V4.26922V4.26945V4.26969V4.26992V4.27015V4.27039V4.27062V4.27085V4.27108V4.27131V4.27155V4.27178V4.27201V4.27224V4.27246V4.27269V4.27292V4.27315V4.27337V4.2736V4.27383V4.27405V4.27428V4.2745V4.27473V4.27495V4.27517V4.27539V4.27562V4.27584V4.27606V4.27628V4.2765V4.27672V4.27694V4.27715V4.27737V4.27759V4.2778V4.27802V4.27824V4.27845V4.27866V4.27888V4.27909V4.2793V4.27951V4.27972V4.27994V4.28014V4.28035V4.28056V4.28077V4.28098V4.28118V4.28139V4.2816V4.2818V4.282V4.28221V4.28241V4.28261V4.28281V4.28301V4.28321V4.28341V4.28361V4.28381V4.28401V4.2842V4.2844V4.2846V4.28479V4.28498V4.28518V4.28537V4.28556V4.28575V4.28594V4.28613V4.28632V4.28651V4.2867V4.28688V4.28707V4.28725V4.28744V4.28762V4.2878V4.28799V4.28817V4.28835V4.28853V4.28871V4.28888V4.28906V4.28924V4.28941V4.28959V4.28976V4.28994V4.29011V4.29028V4.29045V4.29062V4.29079V4.29096V4.29113V4.29129V4.29146V4.29162V4.29179V4.29195V4.29211V4.29227V4.29244V4.2926V4.29275V4.29291V4.29307V4.29323V4.29338V4.29354V4.29369V4.29384V4.29399V4.29414V4.29429V4.29444V4.29459V4.29474V4.29488V4.29503V4.29517V4.29532V4.29546V4.2956V4.29574V4.29588V4.29602V4.29616V4.29629V4.29643V4.29656V4.2967V4.29683V4.29696V4.29709V4.29722V4.29735V4.29748V4.29761V4.29773V4.29786V4.29798V4.2981V4.29823V4.29835V4.29847V4.29858V4.2987V4.29882V4.29893V4.29905V4.29916V4.29927V4.29938V4.29949V4.2996V4.29971V4.29982V4.29992V4.30003V4.30013V4.30024V4.30034V4.30044V4.30054V4.30063V4.30073V4.30083V4.30092V4.30101V4.30111V4.3012V4.30129V4.30138V4.30147V4.30155V4.30164V4.30172V4.30181V4.30189V4.30197V4.30205V4.30213V4.3022V4.30228V4.30236V4.30243V4.3025V4.30257V4.30264V4.30271V4.30278V4.30285V4.30291V4.30298V4.30304V4.3031V4.30316V4.30322V4.30328V4.30339V4.3035V4.3036V4.3037V4.30379V4.30387V4.30396V4.30403V4.3041V4.30417V4.30423V4.30431V4.30438V4.30445V4.30453V4.3375L69.1447 4.36742C69.1959 4.47827 69.2251 4.59783 69.2307 4.71955L69.2303 4.71957L69.2315 4.72971C69.242 4.82124 69.2424 4.91362 69.2328 5.00522C69.1825 5.18635 69.1838 5.3779 69.2365 5.55851L69.2598 5.63812L69.3396 5.66075C69.9862 5.84411 70.621 6.46602 71.1637 7.18936C71.6891 7.88963 72.1072 8.65619 72.3453 9.1261V9.12647V9.12685V9.12722V9.1276V9.12797V9.12834V9.12872V9.1291V9.12947V9.12985V9.13023V9.1306V9.13098V9.13136V9.13173V9.13211V9.13249V9.13287V9.13325V9.13363V9.13401V9.13439V9.13477V9.13515V9.13553V9.13591V9.1363V9.13668V9.13706V9.13744V9.13783V9.13821V9.13859V9.13897V9.13936V9.13974V9.14013V9.14051V9.14089V9.14128V9.14166V9.14205V9.14243V9.14282V9.1432V9.14359V9.14397V9.14436V9.14474V9.14513V9.14551V9.1459V9.14629V9.14667V9.14706V9.14744V9.14783V9.14822V9.1486V9.14899V9.14938V9.14976V9.15015V9.15054V9.15092V9.15131V9.1517V9.15208V9.15247V9.15285V9.15324V9.15363V9.15401V9.1544V9.15479V9.15517V9.15556V9.15594V9.15633V9.15671V9.1571V9.15749V9.15787V9.15826V9.15864V9.15903V9.15941V9.1598V9.16018V9.16057V9.16095V9.16133V9.16172V9.1621V9.16249V9.16287V9.16325V9.16363V9.16402V9.1644V9.16478V9.16516V9.16554V9.16593V9.16631V9.16669V9.16707V9.16745V9.16783V9.16821V9.16859V9.16897V9.16935V9.16973V9.1701V9.17048V9.17086V9.17124V9.17161V9.17199V9.17237V9.17274V9.17312V9.17349V9.17387V9.17424V9.17461V9.17499V9.17536V9.17573V9.1761V9.17648V9.17685V9.17722V9.17759V9.17796V9.17833V9.1787V9.17906V9.17943V9.1798V9.18017V9.18053V9.1809V9.18126V9.18163V9.18199V9.18236V9.18272V9.18308V9.18344V9.18381V9.18417V9.18453V9.18489V9.18525V9.18561V9.18596V9.18632V9.18668V9.18703V9.18739V9.18774V9.1881V9.18845V9.1888V9.18915V9.18951V9.18986V9.19021V9.19056V9.1909V9.19125V9.1916V9.19195V9.19229V9.19264V9.19298V9.19333V9.19367V9.19401V9.19435V9.19469V9.19503V9.19537V9.19571V9.19604V9.19638V9.19672V9.19705V9.19738V9.19772V9.19805V9.19838V9.19871V9.19904V9.19937V9.1997V9.20003V9.20035V9.20068V9.201V9.20133V9.20165V9.20197V9.20229V9.20261V9.20293V9.20325V9.20356V9.20388V9.20419V9.20451V9.20482V9.20513V9.20544V9.20575V9.20606V9.20637V9.20668V9.20698V9.20729V9.20759V9.2079V9.2082V9.2085V9.2088V9.2091V9.20939V9.20969V9.20998V9.21028V9.21057V9.21086V9.21115V9.21144V9.21173V9.21202V9.21231V9.21259V9.21287V9.21316V9.21344V9.21372V9.214V9.21428V9.21455V9.21483V9.2151V9.21538V9.21565V9.21592V9.21619V9.21646V9.21672V9.21699V9.21725V9.21752V9.21778V9.21804V9.2183V9.21856V9.21881V9.21907V9.21932V9.21957V9.21983V9.22008V9.22032V9.22057V9.22082V9.22106V9.22131V9.22155V9.22179V9.22203V9.22226V9.2225V9.22274V9.22297V9.2232V9.22343V9.22366V9.22389V9.22411V9.22434V9.22456V9.22478V9.225V9.22522V9.22544V9.22566V9.22587V9.22608V9.22629V9.2265V9.22671V9.22692V9.22712V9.22733V9.22753V9.22773V9.22793V9.22813V9.22832V9.22852V9.22871V9.2289V9.22909V9.22928V9.22946V9.22965V9.22983V9.23001V9.23019V9.23037V9.23054V9.23072V9.23089V9.23106V9.23123V9.2314V9.23156V9.23173V9.23189V9.23205V9.23221V9.23237V9.23252V9.23268V9.23283V9.23298V9.23313V9.23327V9.23342V9.23356V9.2337V9.23384V9.23398V9.23412V9.23425V9.23438V9.23451V9.23464V9.23477V9.23489V9.23502V9.23514V9.23526V9.23538V9.23549V9.2356V9.23572V9.23583V9.23593V9.23604V9.23614V9.23625V9.23635V9.23644V9.23654V9.23663V9.23673V9.23682V9.2369V9.23699V9.23707V9.23716V9.23724V9.23732V9.23739V9.23747V9.23754V9.23761V9.23768V9.23774V9.23781V9.23787V9.23793V9.23799V9.23809V9.2382V9.23829V9.23837V9.23845V9.23851V9.23857V9.23864V9.2387L72.4953 9.23873H72.345L72.3456 9.24813C72.3512 9.33659 72.3512 9.4253 72.3456 9.51376ZM1.09225 21.9267V24.1526V21.9267ZM69.8208 9.47059L70.0897 9.2124H69.7946C69.4708 8.61479 69.0381 8.08174 68.5183 7.64041L68.4942 7.61997L68.4639 7.61098C68.0782 7.49635 67.735 7.27187 67.4769 6.96558L67.3802 6.8509L67.2655 6.94753C64.1998 9.53029 59.9692 11.2112 56.1829 12.2834C52.3994 13.3548 49.0751 13.8143 47.8335 13.9621L47.776 13.969L47.738 14.0127C45.6457 16.4183 42.7376 17.5802 39.4685 17.9271C36.1978 18.2741 32.5757 17.8037 29.075 16.9534C22.0736 15.2527 15.5922 12.0409 13.4486 10.8753L13.3727 10.8341L13.2989 10.879C11.6664 11.8725 9.57899 11.2793 7.94368 10.3571L7.78558 10.2679L7.7278 10.44L5.23598 17.8598L5.17561 18.0396L5.36443 18.0569L43.402 21.5566L43.402 21.5573H43.4158C43.4144 21.5573 43.4154 21.5574 43.4205 21.5579C43.4262 21.5584 43.4368 21.5595 43.4549 21.5614L43.4783 21.5639C43.5043 21.5667 43.537 21.5703 43.5756 21.5742C43.6782 21.5847 43.8234 21.5983 44.0092 21.6105C44.3807 21.635 44.9132 21.6542 45.5904 21.6333C46.9448 21.5917 48.8771 21.39 51.2556 20.7514C56.0138 19.474 62.552 16.4498 69.8208 9.47059ZM2.64166 13.4915L2.63777 13.5063L2.63692 13.5215C2.559 14.9165 2.57154 16.315 2.67447 17.7084L2.96629 17.745L6.15555 8.22367C6.15559 8.22354 6.15563 8.22341 6.15568 8.22328C6.21232 8.05751 6.30855 7.90767 6.43625 7.7866C6.56401 7.66547 6.71948 7.57672 6.88944 7.52803C7.06017 7.47979 7.24018 7.4734 7.41398 7.50941C7.58786 7.54545 7.75023 7.62284 7.88715 7.73484L7.89302 7.73964L7.89935 7.74383C7.89737 7.74251 7.90438 7.74782 7.93426 7.76991C7.95952 7.78859 7.99557 7.81503 8.04119 7.84773C8.1324 7.91313 8.26181 8.00352 8.4199 8.10708C8.73559 8.31389 9.16777 8.57462 9.63993 8.79359C10.1103 9.01174 10.63 9.19296 11.1185 9.2325C11.609 9.2722 12.0855 9.16957 12.4386 8.79842C12.6065 8.62505 12.8277 8.51165 13.0677 8.47621C13.3064 8.44097 13.5501 8.48484 13.7609 8.60084C13.7801 8.61294 13.8153 8.63295 13.858 8.65668C13.9126 8.6871 13.9895 8.72914 14.0873 8.78168C14.283 8.88679 14.5632 9.03432 14.9178 9.21542C15.6272 9.57764 16.635 10.0744 17.8611 10.635C20.313 11.7559 23.6405 13.133 27.2024 14.1991C30.7626 15.2648 34.5662 16.0225 37.9675 15.898C41.369 15.7735 44.3899 14.765 46.3494 12.2747L46.3495 12.2746C46.4407 12.1586 46.5547 12.0621 46.6847 11.991C46.8148 11.92 46.958 11.8758 47.1059 11.8613L47.1083 11.861C51.4494 11.3632 55.7102 10.3258 59.7905 8.77297L59.6922 8.48968L57.6863 9.12037L57.6862 9.1201L57.6777 9.12338C57.5635 9.16707 57.441 9.18496 57.319 9.17572L57.319 9.17563L57.3136 9.17541L57.2693 9.17368C56.7521 9.15355 53.2687 9.01797 49.1578 8.67806C44.8939 8.32551 39.9717 7.75435 36.9796 6.86894L36.8356 7.1233C37.4215 7.6609 38.0718 8.12491 38.7717 8.50491L38.7717 8.50498L38.7762 8.50724C40.3488 9.29378 41.0879 10.1418 41.4301 10.8211C41.7726 11.5009 41.725 12.0267 41.6981 12.181L41.6977 12.1839C41.6663 12.3888 41.5765 12.5805 41.4387 12.7365C41.301 12.8925 41.1211 13.0062 40.9202 13.0641C40.3744 13.218 38.7063 13.6641 36.8661 13.9255C35.9458 14.0562 34.9859 14.1402 34.1038 14.1192C33.2193 14.0981 32.4259 13.9717 31.8305 13.691L31.8297 13.6906C30.154 12.913 16.7302 6.93613 10.3513 4.09596C9.42092 3.68171 8.64041 3.3342 8.06807 3.07927L7.94082 3.02259L7.8749 3.14531C6.62239 5.47707 5.36659 7.8679 4.39881 9.77049C3.91498 10.7217 3.50275 11.5516 3.19881 12.1914C2.89803 12.8245 2.69587 13.2864 2.64166 13.4915ZM44.0196 25.2671L44.0201 25.2671C46.5633 25.1614 51.2068 24.4879 55.8957 22.8146C60.5818 21.1422 65.3367 18.4628 68.0728 14.3299L67.8523 14.1314C57.614 22.5793 49.151 23.8048 45.3096 23.8048L45.3085 23.8048C44.5657 23.8099 43.8237 23.7567 43.0894 23.6457L43.0894 23.6454L43.0805 23.6446L3.12417 20.0212L2.93487 20.0041L2.96217 20.1922L3.17356 21.6485C3.17832 21.6946 3.17823 21.741 3.17328 21.787L3.17242 21.795V21.803V23.0396V23.1731L3.30499 23.1886L20.5359 25.2044L20.6354 25.216L20.6843 25.1285L21.5066 23.6569L21.507 23.6562C21.6006 23.4864 21.7383 23.3443 21.906 23.2448C22.0735 23.1454 22.2648 23.0922 22.4602 23.0907H22.636C22.6543 23.0933 22.6956 23.0994 22.7586 23.1087C23.4902 23.2164 27.138 23.7535 31.3216 24.266C35.9502 24.8329 41.258 25.3728 44.0196 25.2671Z" fill="#76563C" stroke="white" stroke-width="0.3"></path>
</svg>
