<?xml version="1.0" encoding="UTF-8"?>
<svg xmlns="http://www.w3.org/2000/svg" width="75" height="68" viewBox="0 0 75 68" fill="none">
  <path id="Vector" d="M73.2667 37.8314V15.7857C73.2619 11.6005 71.5711 7.58813 68.5653 4.62876C65.5595 1.6694 61.4842 0.0047405 57.2333 0H54.7667C50.5158 0.0047405 46.4405 1.6694 43.4347 4.62876C40.4289 7.58813 38.7382 11.6005 38.7333 15.7857H36.2667C34.5916 15.7847 32.9268 16.043 31.3333 16.5513V12.1429C31.33 9.24542 30.1595 6.46758 28.0786 4.41878C25.9976 2.36998 23.1762 1.21754 20.2333 1.21429H2.96667C2.63957 1.21429 2.32587 1.34222 2.09457 1.56994C1.86328 1.79766 1.73334 2.10652 1.73334 2.42857V7.28571C1.73491 8.89368 2.19914 10.4683 3.07225 11.8272C3.94536 13.1861 5.19161 14.2737 6.66667 14.9639V21.8571C6.66637 23.4697 7.02911 25.0623 7.72878 26.5204C8.42845 27.9784 9.44766 29.2656 10.7131 30.2894L5.4429 33.7486C3.92099 34.7452 2.67319 36.097 1.81074 37.6836C0.948297 39.2702 0.498002 41.0423 0.500007 42.8418V52.2143C0.500007 52.5363 0.629947 52.8452 0.861242 53.0729C1.09254 53.3006 1.40624 53.4286 1.73334 53.4286H19.7617C19.2577 54.6984 18.9993 56.0499 19 57.4133V66.7857C19 67.1078 19.1299 67.4166 19.3612 67.6443C19.5925 67.8721 19.9062 68 20.2333 68H54.7667C55.0938 68 55.4075 67.8721 55.6388 67.6443C55.8701 67.4166 56 67.1078 56 66.7857V57.4133C56.0007 56.0499 55.7423 54.6984 55.2383 53.4286H73.2667C73.5938 53.4286 73.9075 53.3006 74.1388 53.0729C74.3701 52.8452 74.5 52.5363 74.5 52.2143V42.8418C74.501 41.0987 74.0781 39.3807 73.2667 37.8314ZM41.2 15.7857C41.2041 12.2444 42.6347 8.8493 45.1781 6.34522C47.7215 3.84114 51.1698 2.43259 54.7667 2.42857H57.2333C60.8302 2.43259 64.2785 3.84114 66.8219 6.34522C69.3653 8.8493 70.7959 12.2444 70.8 15.7857V34.6967C70.4089 34.3523 69.9935 34.0355 69.5571 33.7486L64.2868 30.2894C65.5522 29.2657 66.5715 27.9785 67.2712 26.5204C67.9709 25.0624 68.3336 23.4697 68.3333 21.8571V17C68.3322 16.0342 67.9421 15.1082 67.2484 14.4253C66.5548 13.7424 65.6143 13.3582 64.6333 13.3571V10.9286C64.6333 10.6065 64.5034 10.2977 64.2721 10.0699C64.0408 9.84222 63.7271 9.71429 63.4 9.71429C63.0729 9.71429 62.7592 9.84222 62.5279 10.0699C62.2966 10.2977 62.1667 10.6065 62.1667 10.9286V13.3571H59.7V10.9286C59.7 10.6065 59.5701 10.2977 59.3388 10.0699C59.1075 9.84222 58.7938 9.71429 58.4667 9.71429C58.1396 9.71429 57.8259 9.84222 57.5946 10.0699C57.3633 10.2977 57.2333 10.6065 57.2333 10.9286V13.3571H54.7667V10.9286C54.7667 10.6065 54.6367 10.2977 54.4054 10.0699C54.1741 9.84222 53.8604 9.71429 53.5333 9.71429C53.2062 9.71429 52.8925 9.84222 52.6612 10.0699C52.4299 10.2977 52.3 10.6065 52.3 10.9286V13.3571H49.8333V10.9286C49.8333 10.6065 49.7034 10.2977 49.4721 10.0699C49.2408 9.84222 48.9271 9.71429 48.6 9.71429C48.2729 9.71429 47.9592 9.84222 47.7279 10.0699C47.4966 10.2977 47.3667 10.6065 47.3667 10.9286V13.3571C46.4632 13.3583 45.5913 13.6845 44.9151 14.2743C44.2388 14.8641 43.8047 15.677 43.6946 16.5598C42.8805 16.2982 42.0462 16.1018 41.2 15.9726V15.7857ZM54.7667 32.7857H57.2333C58.3533 32.7866 59.4669 32.62 60.536 32.2917C60.4654 32.482 60.3842 32.6683 60.2928 32.8498C59.4842 34.4402 58.0812 35.2143 56 35.2143C55.5864 35.216 55.1735 35.1797 54.7667 35.1059V32.7857ZM57.2333 30.3571H54.7184C54.5058 27.6841 53.6064 25.1081 52.1046 22.8714C50.6028 20.6347 48.548 18.8107 46.1333 17.5709V17C46.1337 16.6781 46.2638 16.3694 46.495 16.1418C46.7262 15.9141 47.0397 15.7861 47.3667 15.7857H64.6333C64.9603 15.7861 65.2738 15.9141 65.505 16.1418C65.7362 16.3694 65.8663 16.6781 65.8667 17V21.8571C65.8641 24.1107 64.9536 26.2712 63.3351 27.8647C61.7166 29.4582 59.5222 30.3546 57.2333 30.3571ZM36.2667 18.2143H38.7333C42.3302 18.2183 45.7786 19.6269 48.3219 22.1309C50.8653 24.635 52.2959 28.0301 52.3 31.5714V42.5H49.8333V35.2143C49.8333 34.8922 49.7034 34.5834 49.4721 34.3557C49.2408 34.1279 48.9271 34 48.6 34C40.6476 34 33.5731 26.0041 33.5025 25.9233C33.3384 25.7351 33.1197 25.6009 32.8758 25.5388C32.6319 25.4766 32.3746 25.4895 32.1383 25.5756C31.9021 25.6617 31.6983 25.817 31.5544 26.0206C31.4105 26.2242 31.3333 26.4663 31.3333 26.7143C31.3333 28.937 27.8345 32.5262 25.6292 34.2661C25.4848 34.3799 25.3683 34.5242 25.2882 34.6883C25.2082 34.8524 25.1666 35.0322 25.1667 35.2143V42.5H22.7V31.5714C22.7041 28.0301 24.1347 24.635 26.6781 22.1309C29.2215 19.6269 32.6698 18.2183 36.2667 18.2143ZM38.7333 44.9286H36.2667C33.9778 44.926 31.7834 44.0296 30.1649 42.4361C28.5464 40.8426 27.636 38.6821 27.6333 36.4286V35.7856C28.8653 34.756 31.9318 32.0039 33.2179 29.1301C35.774 31.5511 41.1337 35.8571 47.3667 36.3768V36.4286C47.3641 38.6821 46.4536 40.8426 44.8351 42.4361C43.2166 44.0296 41.0222 44.926 38.7333 44.9286ZM42.0359 46.8632C41.9569 47.0761 41.8646 47.284 41.7593 47.4856C40.9453 49.0335 39.5521 49.7857 37.5 49.7857C35.4479 49.7857 34.0547 49.0335 33.2407 47.4859C33.1354 47.2843 33.0431 47.0764 32.9641 46.8635C34.0332 47.1917 35.1468 47.3581 36.2667 47.3571H38.7333C39.8532 47.358 40.9668 47.1915 42.0359 46.8632ZM4.20001 7.28571V3.64286H20.2333C22.5222 3.64543 24.7166 4.54179 26.3351 6.13529C27.9536 7.72879 28.8641 9.88931 28.8667 12.1429V13.3571H10.3667C8.73174 13.3553 7.16429 12.7151 6.00821 11.5769C4.85213 10.4386 4.20184 8.8954 4.20001 7.28571ZM9.13334 21.8571V15.6975C9.54179 15.7558 9.95395 15.7853 10.3667 15.7857H28.8667V17.5709C26.452 18.8105 24.3971 20.6342 22.8951 22.8706C21.3932 25.1071 20.4934 27.6828 20.2805 30.3558C20.2651 30.3558 20.2497 30.3571 20.2333 30.3571H17.7667C15.4778 30.3546 13.2834 29.4582 11.6649 27.8647C10.0464 26.2712 9.13595 24.1107 9.13334 21.8571ZM20.2333 32.7857V35.1053C19.8266 35.1793 19.4137 35.2158 19 35.2143C16.9479 35.2143 15.5547 34.462 14.7407 32.9144C14.6354 32.7129 14.5431 32.505 14.4641 32.2921C15.5332 32.6203 16.6468 32.7867 17.7667 32.7857H20.2333ZM2.96667 51V42.8418C2.96499 41.4421 3.31516 40.0636 3.98596 38.8295C4.65675 37.5953 5.62732 36.5438 6.81113 35.7686L11.9179 32.4166C12.0612 32.9402 12.2565 33.4486 12.5011 33.9344C13.3598 35.627 15.1845 37.6429 19 37.6429C19.4124 37.6436 19.8244 37.6178 20.2333 37.5656V43.7143C20.2333 44.0363 20.3633 44.3452 20.5946 44.5729C20.8259 44.8006 21.1396 44.9286 21.4667 44.9286H26.4C26.7271 44.9286 27.0408 44.8006 27.2721 44.5729C27.5034 44.3452 27.6333 44.0363 27.6333 43.7143V43.287C28.1051 43.8624 28.6344 44.3897 29.2132 44.8609L23.9429 48.3201C22.8446 49.0406 21.8855 49.9481 21.1105 51H2.96667ZM53.5333 65.5714H21.4667V57.4133C21.465 56.0135 21.8152 54.6351 22.486 53.4009C23.1568 52.1668 24.1273 51.1152 25.3111 50.34L30.4179 46.988C30.5612 47.5116 30.7565 48.02 31.0011 48.5059C31.8598 50.1984 33.6845 52.2143 37.5 52.2143C41.3155 52.2143 43.1402 50.1984 43.9989 48.5074C44.2435 48.0215 44.4388 47.5131 44.5821 46.9895L49.6889 50.3416C50.8725 51.1166 51.8429 52.1679 52.5137 53.4018C53.1845 54.6356 53.5348 56.0138 53.5333 57.4133V65.5714ZM72.0333 51H53.8895C53.1146 49.9481 52.1554 49.0406 51.0571 48.3201L45.7868 44.8609C46.3656 44.3897 46.8949 43.8624 47.3667 43.287V43.7143C47.3667 44.0363 47.4966 44.3452 47.7279 44.5729C47.9592 44.8006 48.2729 44.9286 48.6 44.9286H53.5333C53.8604 44.9286 54.1741 44.8006 54.4054 44.5729C54.6367 44.3452 54.7667 44.0363 54.7667 43.7143V37.5642C55.1756 37.617 55.5876 37.6432 56 37.6429C59.8155 37.6429 61.6402 35.627 62.4989 33.9359C62.7435 33.4501 62.9388 32.9417 63.0821 32.4181L68.1889 35.7701C69.3725 36.5452 70.3429 37.5965 71.0137 38.8303C71.6845 40.0642 72.0348 41.4423 72.0333 42.8418V51Z" fill="#76563C"></path>
</svg>
