<?xml version="1.0" encoding="UTF-8"?>
<svg xmlns="http://www.w3.org/2000/svg" width="48" height="60" viewBox="0 0 48 60" fill="none">
  <path id="Vector" d="M23.6366 0.755974L23.6365 0.755914C23.3986 0.818669 23.1806 0.942185 23.0037 1.1147C19.3379 4.69787 14.4309 6.70429 9.31883 6.70897L9.31856 6.70897C6.89922 6.70897 4.50235 6.24085 2.25072 5.35559C2.034 5.27048 1.79998 5.23988 1.56893 5.26639C1.33788 5.2929 1.11662 5.37574 0.924381 5.50786C0.73213 5.63998 0.574658 5.81743 0.465784 6.02493C0.356906 6.23244 0.299965 6.46365 0.3 6.69848V6.69853V35.6752C0.3 39.1879 1.79167 42.3705 4.01328 45.2C6.23561 48.0305 9.17458 50.4897 12.0335 52.5485L11.8582 52.7919L12.0335 52.5485C14.8884 54.6045 17.737 56.2626 19.8728 57.4069C20.9404 57.9789 21.8291 58.4221 22.4503 58.722C22.7609 58.872 23.0046 58.9861 23.1704 59.0627C23.2532 59.1009 23.3166 59.1297 23.3591 59.149L23.407 59.1705L23.4188 59.1758L23.4217 59.1771L23.4224 59.1774L23.4225 59.1774L23.4227 59.1775C23.6047 59.2583 23.8013 59.3 24 59.3C24.1987 59.3 24.3953 59.2583 24.5773 59.1775L24.5775 59.1774L24.5776 59.1774L24.5783 59.1771L24.5812 59.1758L24.593 59.1705L24.6409 59.149C24.6834 59.1297 24.7468 59.1009 24.8296 59.0627C24.9954 58.9861 25.2391 58.872 25.5497 58.722C26.171 58.4221 27.0597 57.9789 28.1273 57.4069C30.2632 56.2626 33.112 54.6045 35.9671 52.5485C38.8257 50.4897 41.7645 48.0305 43.9868 45.2C46.2083 42.3705 47.7 39.188 47.7 35.6752V6.69853C47.7 6.46376 47.6431 6.23262 47.5342 6.02518C47.4254 5.81774 47.268 5.64033 47.0758 5.50822C46.8836 5.37612 46.6624 5.29326 46.4314 5.26669C46.2005 5.24013 45.9666 5.27063 45.7499 5.35559C45.7499 5.35561 45.7499 5.35562 45.7498 5.35564L45.6403 5.07636C43.4218 5.94766 41.0628 6.3991 38.6814 6.40897L23.6366 0.755974ZM23.6366 0.755974L23.6424 0.754307C23.7245 0.730871 23.8084 0.714899 23.8932 0.706541L23.6366 0.755974ZM29.5784 22.9872L29.5597 22.9863C29.3454 22.9754 29.1314 23.0132 28.9335 23.097C28.7357 23.1808 28.5589 23.3083 28.4165 23.4704L22.3397 30.3959L22.1213 30.6448L21.8951 30.4028L18.9387 27.2401L18.9385 27.2398C18.6787 26.9613 18.32 26.7983 17.9414 26.7861C17.5628 26.7739 17.1945 26.9134 16.9176 27.1745L16.9176 27.1745C16.7804 27.3039 16.6699 27.4593 16.5922 27.6318C16.5146 27.8044 16.4716 27.9907 16.4655 28.1801C16.4595 28.3695 16.4906 28.5582 16.5571 28.7355C16.6235 28.9126 16.7239 29.0748 16.8525 29.2127L29.5784 22.9872ZM29.5784 22.9872L29.5971 22.9858M29.5784 22.9872L29.5971 22.9858M29.5971 22.9858C29.6562 22.9814 29.7203 22.9825 29.7897 22.9871M29.5971 22.9858L29.7897 22.9871M29.7897 22.9871C30.0285 23.039 30.2504 23.1518 30.4339 23.3148L29.7897 22.9871ZM24.699 59.4517C24.699 59.4517 30.4044 56.924 36.1425 52.7919L23.301 59.4517C23.5212 59.5495 23.7593 59.6 24 59.6C24.2407 59.6 24.4788 59.5495 24.699 59.4517ZM24.1923 4.24928L24.1084 4.17816H23.9984H23.9814H23.8713L23.7874 4.2493C19.7445 7.67576 14.6188 9.57895 9.29931 9.58299C7.34763 9.57513 5.40948 9.31021 3.53062 8.7973L3.15161 8.69384V9.08671V35.668C3.15161 38.3077 4.4501 40.972 6.39746 43.4459C8.34824 45.9242 10.9743 48.2423 13.6874 50.1964L13.8627 49.953L13.6874 50.1964C18.0946 53.3701 22.3559 55.4882 23.8615 56.2008L23.9898 56.2616L24.1182 56.2008C25.6245 55.4882 29.8858 53.3701 34.293 50.1964L34.293 50.1964C37.0058 48.2423 39.632 45.9242 41.583 43.4459C43.5306 40.972 44.8294 38.3077 44.8294 35.668V9.08671V8.69514L44.4513 8.79705C42.5702 9.30407 40.6313 9.58297 38.6817 9.58299C33.3626 9.57909 28.236 7.67589 24.1923 4.24928ZM21.1075 33.7665L16.8527 29.2129L30.4341 23.315C30.7182 23.5679 30.8913 23.9243 30.9147 24.306C30.9381 24.6879 30.8098 25.0631 30.5584 25.3494L30.5583 25.3495L23.224 33.7097L23.222 33.7121C23.0916 33.8638 22.9312 33.9864 22.7512 34.072C22.5712 34.1576 22.3755 34.2044 22.1766 34.2096C21.9777 34.2147 21.7799 34.178 21.5958 34.1017C21.4122 34.0256 21.2462 33.9119 21.1085 33.7676C21.1081 33.7672 21.1078 33.7669 21.1075 33.7665ZM9.33529 28.791C9.33529 20.6625 15.9227 14.0387 23.9984 14.0387C32.0747 14.0387 38.6621 20.6625 38.6621 28.791C38.6621 36.9188 32.0747 43.5427 23.9984 43.5427C15.9227 43.5427 9.33529 36.9188 9.33529 28.791ZM35.8 28.791C35.8 22.2166 30.5384 16.9213 23.9984 16.9213C17.459 16.9213 12.1974 22.2166 12.1974 28.791C12.1974 35.3647 17.459 40.6601 23.9984 40.6601C30.5384 40.6601 35.8 35.3648 35.8 28.791Z" fill="#76563C" stroke="white" stroke-width="0.6"></path>
</svg>
