<?xml version="1.0" encoding="UTF-8"?>
<svg xmlns="http://www.w3.org/2000/svg" width="74" height="68" viewBox="0 0 74 68" fill="none">
  <path id="Vector" d="M72.7667 37.8314V15.7857C72.7619 11.6005 71.0711 7.58813 68.0653 4.62876C65.0595 1.6694 60.9842 0.0047405 56.7333 0H54.2667C50.0158 0.0047405 45.9405 1.6694 42.9347 4.62876C39.9289 7.58813 38.2382 11.6005 38.2333 15.7857H35.7667C34.0916 15.7847 32.4268 16.043 30.8333 16.5513V12.1429C30.83 9.24542 29.6595 6.46758 27.5786 4.41878C25.4976 2.36998 22.6762 1.21754 19.7333 1.21429H2.46667C2.13957 1.21429 1.82587 1.34222 1.59457 1.56994C1.36328 1.79766 1.23334 2.10652 1.23334 2.42857V7.28571C1.23491 8.89368 1.69914 10.4683 2.57225 11.8272C3.44536 13.1861 4.69161 14.2737 6.16667 14.9639V21.8571C6.16637 23.4697 6.52911 25.0623 7.22878 26.5204C7.92845 27.9784 8.94766 29.2656 10.2131 30.2894L4.9429 33.7486C3.42099 34.7452 2.17319 36.097 1.31074 37.6836C0.448297 39.2702 -0.00199777 41.0423 6.66266e-06 42.8418V52.2143C6.66266e-06 52.5363 0.129947 52.8452 0.361242 53.0729C0.592536 53.3006 0.90624 53.4286 1.23334 53.4286H19.2617C18.7577 54.6984 18.4993 56.0499 18.5 57.4133V66.7857C18.5 67.1078 18.6299 67.4166 18.8612 67.6443C19.0925 67.8721 19.4062 68 19.7333 68H54.2667C54.5938 68 54.9075 67.8721 55.1388 67.6443C55.3701 67.4166 55.5 67.1078 55.5 66.7857V57.4133C55.5007 56.0499 55.2423 54.6984 54.7383 53.4286H72.7667C73.0938 53.4286 73.4075 53.3006 73.6388 53.0729C73.8701 52.8452 74 52.5363 74 52.2143V42.8418C74.001 41.0987 73.5781 39.3807 72.7667 37.8314ZM40.7 15.7857C40.7041 12.2444 42.1347 8.8493 44.6781 6.34522C47.2215 3.84114 50.6698 2.43259 54.2667 2.42857H56.7333C60.3302 2.43259 63.7785 3.84114 66.3219 6.34522C68.8653 8.8493 70.2959 12.2444 70.3 15.7857V34.6967C69.9089 34.3523 69.4935 34.0355 69.0571 33.7486L63.7868 30.2894C65.0522 29.2657 66.0715 27.9785 66.7712 26.5204C67.4709 25.0624 67.8336 23.4697 67.8333 21.8571V17C67.8322 16.0342 67.4421 15.1082 66.7484 14.4253C66.0548 13.7424 65.1143 13.3582 64.1333 13.3571V10.9286C64.1333 10.6065 64.0034 10.2977 63.7721 10.0699C63.5408 9.84222 63.2271 9.71429 62.9 9.71429C62.5729 9.71429 62.2592 9.84222 62.0279 10.0699C61.7966 10.2977 61.6667 10.6065 61.6667 10.9286V13.3571H59.2V10.9286C59.2 10.6065 59.0701 10.2977 58.8388 10.0699C58.6075 9.84222 58.2938 9.71429 57.9667 9.71429C57.6396 9.71429 57.3259 9.84222 57.0946 10.0699C56.8633 10.2977 56.7333 10.6065 56.7333 10.9286V13.3571H54.2667V10.9286C54.2667 10.6065 54.1367 10.2977 53.9054 10.0699C53.6741 9.84222 53.3604 9.71429 53.0333 9.71429C52.7062 9.71429 52.3925 9.84222 52.1612 10.0699C51.9299 10.2977 51.8 10.6065 51.8 10.9286V13.3571H49.3333V10.9286C49.3333 10.6065 49.2034 10.2977 48.9721 10.0699C48.7408 9.84222 48.4271 9.71429 48.1 9.71429C47.7729 9.71429 47.4592 9.84222 47.2279 10.0699C46.9966 10.2977 46.8667 10.6065 46.8667 10.9286V13.3571C45.9632 13.3583 45.0913 13.6845 44.4151 14.2743C43.7388 14.8641 43.3047 15.677 43.1946 16.5598C42.3805 16.2982 41.5462 16.1018 40.7 15.9726V15.7857ZM54.2667 32.7857H56.7333C57.8533 32.7866 58.9669 32.62 60.036 32.2917C59.9654 32.482 59.8842 32.6683 59.7928 32.8498C58.9842 34.4402 57.5812 35.2143 55.5 35.2143C55.0864 35.216 54.6735 35.1797 54.2667 35.1059V32.7857ZM56.7333 30.3571H54.2184C54.0058 27.6841 53.1064 25.1081 51.6046 22.8714C50.1028 20.6347 48.048 18.8107 45.6333 17.5709V17C45.6337 16.6781 45.7638 16.3694 45.995 16.1418C46.2262 15.9141 46.5397 15.7861 46.8667 15.7857H64.1333C64.4603 15.7861 64.7738 15.9141 65.005 16.1418C65.2362 16.3694 65.3663 16.6781 65.3667 17V21.8571C65.3641 24.1107 64.4536 26.2712 62.8351 27.8647C61.2166 29.4582 59.0222 30.3546 56.7333 30.3571ZM35.7667 18.2143H38.2333C41.8302 18.2183 45.2786 19.6269 47.8219 22.1309C50.3653 24.635 51.7959 28.0301 51.8 31.5714V42.5H49.3333V35.2143C49.3333 34.8922 49.2034 34.5834 48.9721 34.3557C48.7408 34.1279 48.4271 34 48.1 34C40.1476 34 33.0731 26.0041 33.0025 25.9233C32.8384 25.7351 32.6197 25.6009 32.3758 25.5388C32.1319 25.4766 31.8746 25.4895 31.6383 25.5756C31.4021 25.6617 31.1983 25.817 31.0544 26.0206C30.9105 26.2242 30.8333 26.4663 30.8333 26.7143C30.8333 28.937 27.3345 32.5262 25.1292 34.2661C24.9848 34.3799 24.8683 34.5242 24.7882 34.6883C24.7082 34.8524 24.6666 35.0322 24.6667 35.2143V42.5H22.2V31.5714C22.2041 28.0301 23.6347 24.635 26.1781 22.1309C28.7215 19.6269 32.1698 18.2183 35.7667 18.2143ZM38.2333 44.9286H35.7667C33.4778 44.926 31.2834 44.0296 29.6649 42.4361C28.0464 40.8426 27.136 38.6821 27.1333 36.4286V35.7856C28.3653 34.756 31.4318 32.0039 32.7179 29.1301C35.274 31.5511 40.6337 35.8571 46.8667 36.3768V36.4286C46.8641 38.6821 45.9536 40.8426 44.3351 42.4361C42.7166 44.0296 40.5222 44.926 38.2333 44.9286ZM41.5359 46.8632C41.4569 47.0761 41.3646 47.284 41.2593 47.4856C40.4453 49.0335 39.0521 49.7857 37 49.7857C34.9479 49.7857 33.5547 49.0335 32.7407 47.4859C32.6354 47.2843 32.5431 47.0764 32.4641 46.8635C33.5332 47.1917 34.6468 47.3581 35.7667 47.3571H38.2333C39.3532 47.358 40.4668 47.1915 41.5359 46.8632ZM3.70001 7.28571V3.64286H19.7333C22.0222 3.64543 24.2166 4.54179 25.8351 6.13529C27.4536 7.72879 28.3641 9.88931 28.3667 12.1429V13.3571H9.86667C8.23174 13.3553 6.66429 12.7151 5.50821 11.5769C4.35213 10.4386 3.70184 8.8954 3.70001 7.28571ZM8.63334 21.8571V15.6975C9.04179 15.7558 9.45395 15.7853 9.86667 15.7857H28.3667V17.5709C25.952 18.8105 23.8971 20.6342 22.3951 22.8706C20.8932 25.1071 19.9934 27.6828 19.7805 30.3558C19.7651 30.3558 19.7497 30.3571 19.7333 30.3571H17.2667C14.9778 30.3546 12.7834 29.4582 11.1649 27.8647C9.54637 26.2712 8.63595 24.1107 8.63334 21.8571ZM19.7333 32.7857V35.1053C19.3266 35.1793 18.9137 35.2158 18.5 35.2143C16.4479 35.2143 15.0547 34.462 14.2407 32.9144C14.1354 32.7129 14.0431 32.505 13.9641 32.2921C15.0332 32.6203 16.1468 32.7867 17.2667 32.7857H19.7333ZM2.46667 51V42.8418C2.46499 41.4421 2.81516 40.0636 3.48596 38.8295C4.15675 37.5953 5.12732 36.5438 6.31113 35.7686L11.4179 32.4166C11.5612 32.9402 11.7565 33.4486 12.0011 33.9344C12.8598 35.627 14.6845 37.6429 18.5 37.6429C18.9124 37.6436 19.3244 37.6178 19.7333 37.5656V43.7143C19.7333 44.0363 19.8633 44.3452 20.0946 44.5729C20.3259 44.8006 20.6396 44.9286 20.9667 44.9286H25.9C26.2271 44.9286 26.5408 44.8006 26.7721 44.5729C27.0034 44.3452 27.1333 44.0363 27.1333 43.7143V43.287C27.6051 43.8624 28.1344 44.3897 28.7132 44.8609L23.4429 48.3201C22.3446 49.0406 21.3855 49.9481 20.6105 51H2.46667ZM53.0333 65.5714H20.9667V57.4133C20.965 56.0135 21.3152 54.6351 21.986 53.4009C22.6568 52.1668 23.6273 51.1152 24.8111 50.34L29.9179 46.988C30.0612 47.5116 30.2565 48.02 30.5011 48.5059C31.3598 50.1984 33.1845 52.2143 37 52.2143C40.8155 52.2143 42.6402 50.1984 43.4989 48.5074C43.7435 48.0215 43.9388 47.5131 44.0821 46.9895L49.1889 50.3416C50.3725 51.1166 51.3429 52.1679 52.0137 53.4018C52.6845 54.6356 53.0348 56.0138 53.0333 57.4133V65.5714ZM71.5333 51H53.3895C52.6146 49.9481 51.6554 49.0406 50.5571 48.3201L45.2868 44.8609C45.8656 44.3897 46.3949 43.8624 46.8667 43.287V43.7143C46.8667 44.0363 46.9966 44.3452 47.2279 44.5729C47.4592 44.8006 47.7729 44.9286 48.1 44.9286H53.0333C53.3604 44.9286 53.6741 44.8006 53.9054 44.5729C54.1367 44.3452 54.2667 44.0363 54.2667 43.7143V37.5642C54.6756 37.617 55.0876 37.6432 55.5 37.6429C59.3155 37.6429 61.1402 35.627 61.9989 33.9359C62.2435 33.4501 62.4388 32.9417 62.5821 32.4181L67.6889 35.7701C68.8725 36.5452 69.8429 37.5965 70.5137 38.8303C71.1845 40.0642 71.5348 41.4423 71.5333 42.8418V51Z" fill="#76563C"></path>
</svg>
