<?xml version="1.0" encoding="UTF-8"?>
<svg xmlns="http://www.w3.org/2000/svg" width="72" height="28" viewBox="0 0 72 28" fill="none">
  <path id="Vector" d="M71.8456 9.51376L71.8448 9.5265L71.8462 9.53919C71.8512 9.58608 71.8512 9.63337 71.8462 9.68025L71.8443 9.69774L71.8465 9.71518C71.8509 9.75008 71.8512 9.78541 71.8472 9.82035C70.4264 16.6314 65.1148 20.9654 59.2652 23.6359C53.4168 26.3058 47.0596 27.2984 43.6104 27.4405H42.7912C37.6476 27.4405 27.2125 26.003 23.3035 25.4645C23.0657 25.4317 22.852 25.4023 22.6652 25.3767L22.5636 25.3628L22.5137 25.4524L21.7164 26.8869L21.7163 26.887C21.6107 27.0775 21.4498 27.2323 21.2543 27.3312C21.0589 27.4301 20.8379 27.4686 20.62 27.4416L20.6189 27.4415L1.70651 25.2403C1.70649 25.2403 1.70646 25.2403 1.70644 25.2403C1.43886 25.2082 1.19278 25.0795 1.01504 24.879C0.837309 24.6785 0.740301 24.4203 0.742245 24.1537V24.1526V21.9267V21.9164L0.740837 21.9062L0.243144 18.3C0.119025 16.57 0.118952 14.8334 0.242927 13.1034C0.267843 12.9685 0.347917 12.7335 0.480588 12.4082C0.613936 12.0814 0.79554 11.6749 1.01385 11.2091C1.45036 10.2778 2.03111 9.11491 2.66 7.88811C3.91764 5.43481 5.36541 2.73077 6.23123 1.1233C6.36205 0.881304 6.58055 0.697172 6.84302 0.608314C7.10532 0.519513 7.39178 0.532567 7.64472 0.644789C7.98807 0.802023 10.8223 2.06414 14.4711 3.68902C21.3482 6.75148 31.1191 11.1026 32.5613 11.7738C32.8389 11.9031 33.2178 11.9711 33.6523 11.9974C34.0898 12.0239 34.5966 12.0087 35.1382 11.9635C36.2215 11.8731 37.4558 11.6615 38.5751 11.4133L38.8799 11.3457L38.6367 11.15C38.3136 10.89 37.9613 10.6681 37.5867 10.4889C37.0787 10.2365 35.6346 9.27297 34.4408 8.11101C33.8438 7.52998 33.3179 6.9074 33.002 6.3072C32.6851 5.70507 32.5931 5.1534 32.8103 4.68966L32.8103 4.68952C32.9719 4.34353 33.2091 4.13851 33.4869 4.02484C33.7691 3.9094 34.102 3.88479 34.454 3.91899C35.1602 3.98759 35.8974 4.28747 36.3536 4.47976C37.4556 4.94804 39.1765 5.33511 41.1558 5.65467C43.1388 5.97484 45.3938 6.22911 47.5712 6.4279C51.9262 6.82551 55.9784 7.00186 56.9389 7.039L56.9649 7.04001L56.9896 7.03223L67.4084 3.76202H67.6458C67.7713 3.76432 67.896 3.78313 68.0166 3.81796L68.037 3.82385H68.0582H68.1298C68.2349 3.86595 68.3341 3.92132 68.425 3.98857C68.5078 4.06127 68.5774 4.14743 68.6309 4.24318V4.24344V4.2437V4.24395V4.24421V4.24447V4.24473V4.24499V4.24525V4.24551V4.24576V4.24602V4.24628V4.24654V4.2468V4.24705V4.24731V4.24757V4.24783V4.24808V4.24834V4.2486V4.24886V4.24911V4.24937V4.24963V4.24988V4.25014V4.2504V4.25065V4.25091V4.25117V4.25142V4.25168V4.25193V4.25219V4.25244V4.2527V4.25295V4.25321V4.25346V4.25372V4.25397V4.25423V4.25448V4.25473V4.25499V4.25524V4.25549V4.25575V4.256V4.25625V4.2565V4.25676V4.25701V4.25726V4.25751V4.25776V4.25801V4.25826V4.25851V4.25876V4.25901V4.25926V4.25951V4.25976V4.26001V4.26026V4.26051V4.26075V4.261V4.26125V4.2615V4.26174V4.26199V4.26224V4.26248V4.26273V4.26297V4.26322V4.26346V4.2637V4.26395V4.26419V4.26444V4.26468V4.26492V4.26516V4.2654V4.26564V4.26589V4.26613V4.26637V4.26661V4.26685V4.26708V4.26732V4.26756V4.2678V4.26804V4.26827V4.26851V4.26875V4.26898V4.26922V4.26945V4.26969V4.26992V4.27015V4.27039V4.27062V4.27085V4.27108V4.27131V4.27155V4.27178V4.27201V4.27224V4.27246V4.27269V4.27292V4.27315V4.27337V4.2736V4.27383V4.27405V4.27428V4.2745V4.27473V4.27495V4.27517V4.27539V4.27562V4.27584V4.27606V4.27628V4.2765V4.27672V4.27694V4.27715V4.27737V4.27759V4.2778V4.27802V4.27824V4.27845V4.27866V4.27888V4.27909V4.2793V4.27951V4.27972V4.27994V4.28014V4.28035V4.28056V4.28077V4.28098V4.28118V4.28139V4.2816V4.2818V4.282V4.28221V4.28241V4.28261V4.28281V4.28301V4.28321V4.28341V4.28361V4.28381V4.28401V4.2842V4.2844V4.2846V4.28479V4.28498V4.28518V4.28537V4.28556V4.28575V4.28594V4.28613V4.28632V4.28651V4.2867V4.28688V4.28707V4.28725V4.28744V4.28762V4.2878V4.28799V4.28817V4.28835V4.28853V4.28871V4.28888V4.28906V4.28924V4.28941V4.28959V4.28976V4.28994V4.29011V4.29028V4.29045V4.29062V4.29079V4.29096V4.29113V4.29129V4.29146V4.29162V4.29179V4.29195V4.29211V4.29227V4.29244V4.2926V4.29275V4.29291V4.29307V4.29323V4.29338V4.29354V4.29369V4.29384V4.29399V4.29414V4.29429V4.29444V4.29459V4.29474V4.29488V4.29503V4.29517V4.29532V4.29546V4.2956V4.29574V4.29588V4.29602V4.29616V4.29629V4.29643V4.29656V4.2967V4.29683V4.29696V4.29709V4.29722V4.29735V4.29748V4.29761V4.29773V4.29786V4.29798V4.2981V4.29823V4.29835V4.29847V4.29858V4.2987V4.29882V4.29893V4.29905V4.29916V4.29927V4.29938V4.29949V4.2996V4.29971V4.29982V4.29992V4.30003V4.30013V4.30024V4.30034V4.30044V4.30054V4.30063V4.30073V4.30083V4.30092V4.30101V4.30111V4.3012V4.30129V4.30138V4.30147V4.30155V4.30164V4.30172V4.30181V4.30189V4.30197V4.30205V4.30213V4.3022V4.30228V4.30236V4.30243V4.3025V4.30257V4.30264V4.30271V4.30278V4.30285V4.30291V4.30298V4.30304V4.3031V4.30316V4.30322V4.30328V4.30339V4.3035V4.3036V4.3037V4.30379V4.30387V4.30396V4.30403V4.3041V4.30417V4.30423V4.30431V4.30438V4.30445V4.30453V4.3375L68.6447 4.36742C68.6959 4.47827 68.7251 4.59783 68.7307 4.71955L68.7303 4.71957L68.7315 4.72971C68.742 4.82124 68.7424 4.91362 68.7328 5.00522C68.6825 5.18635 68.6838 5.3779 68.7365 5.55851L68.7598 5.63812L68.8396 5.66075C69.4862 5.84411 70.121 6.46602 70.6637 7.18936C71.1891 7.88963 71.6072 8.65619 71.8453 9.1261V9.12647V9.12685V9.12722V9.1276V9.12797V9.12834V9.12872V9.1291V9.12947V9.12985V9.13023V9.1306V9.13098V9.13136V9.13173V9.13211V9.13249V9.13287V9.13325V9.13363V9.13401V9.13439V9.13477V9.13515V9.13553V9.13591V9.1363V9.13668V9.13706V9.13744V9.13783V9.13821V9.13859V9.13897V9.13936V9.13974V9.14013V9.14051V9.14089V9.14128V9.14166V9.14205V9.14243V9.14282V9.1432V9.14359V9.14397V9.14436V9.14474V9.14513V9.14551V9.1459V9.14629V9.14667V9.14706V9.14744V9.14783V9.14822V9.1486V9.14899V9.14938V9.14976V9.15015V9.15054V9.15092V9.15131V9.1517V9.15208V9.15247V9.15285V9.15324V9.15363V9.15401V9.1544V9.15479V9.15517V9.15556V9.15594V9.15633V9.15671V9.1571V9.15749V9.15787V9.15826V9.15864V9.15903V9.15941V9.1598V9.16018V9.16057V9.16095V9.16133V9.16172V9.1621V9.16249V9.16287V9.16325V9.16363V9.16402V9.1644V9.16478V9.16516V9.16554V9.16593V9.16631V9.16669V9.16707V9.16745V9.16783V9.16821V9.16859V9.16897V9.16935V9.16973V9.1701V9.17048V9.17086V9.17124V9.17161V9.17199V9.17237V9.17274V9.17312V9.17349V9.17387V9.17424V9.17461V9.17499V9.17536V9.17573V9.1761V9.17648V9.17685V9.17722V9.17759V9.17796V9.17833V9.1787V9.17906V9.17943V9.1798V9.18017V9.18053V9.1809V9.18126V9.18163V9.18199V9.18236V9.18272V9.18308V9.18344V9.18381V9.18417V9.18453V9.18489V9.18525V9.18561V9.18596V9.18632V9.18668V9.18703V9.18739V9.18774V9.1881V9.18845V9.1888V9.18915V9.18951V9.18986V9.19021V9.19056V9.1909V9.19125V9.1916V9.19195V9.19229V9.19264V9.19298V9.19333V9.19367V9.19401V9.19435V9.19469V9.19503V9.19537V9.19571V9.19604V9.19638V9.19672V9.19705V9.19738V9.19772V9.19805V9.19838V9.19871V9.19904V9.19937V9.1997V9.20003V9.20035V9.20068V9.201V9.20133V9.20165V9.20197V9.20229V9.20261V9.20293V9.20325V9.20356V9.20388V9.20419V9.20451V9.20482V9.20513V9.20544V9.20575V9.20606V9.20637V9.20668V9.20698V9.20729V9.20759V9.2079V9.2082V9.2085V9.2088V9.2091V9.20939V9.20969V9.20998V9.21028V9.21057V9.21086V9.21115V9.21144V9.21173V9.21202V9.21231V9.21259V9.21287V9.21316V9.21344V9.21372V9.214V9.21428V9.21455V9.21483V9.2151V9.21538V9.21565V9.21592V9.21619V9.21646V9.21672V9.21699V9.21725V9.21752V9.21778V9.21804V9.2183V9.21856V9.21881V9.21907V9.21932V9.21957V9.21983V9.22008V9.22032V9.22057V9.22082V9.22106V9.22131V9.22155V9.22179V9.22203V9.22226V9.2225V9.22274V9.22297V9.2232V9.22343V9.22366V9.22389V9.22411V9.22434V9.22456V9.22478V9.225V9.22522V9.22544V9.22566V9.22587V9.22608V9.22629V9.2265V9.22671V9.22692V9.22712V9.22733V9.22753V9.22773V9.22793V9.22813V9.22832V9.22852V9.22871V9.2289V9.22909V9.22928V9.22946V9.22965V9.22983V9.23001V9.23019V9.23037V9.23054V9.23072V9.23089V9.23106V9.23123V9.2314V9.23156V9.23173V9.23189V9.23205V9.23221V9.23237V9.23252V9.23268V9.23283V9.23298V9.23313V9.23327V9.23342V9.23356V9.2337V9.23384V9.23398V9.23412V9.23425V9.23438V9.23451V9.23464V9.23477V9.23489V9.23502V9.23514V9.23526V9.23538V9.23549V9.2356V9.23572V9.23583V9.23593V9.23604V9.23614V9.23625V9.23635V9.23644V9.23654V9.23663V9.23673V9.23682V9.2369V9.23699V9.23707V9.23716V9.23724V9.23732V9.23739V9.23747V9.23754V9.23761V9.23768V9.23774V9.23781V9.23787V9.23793V9.23799V9.23809V9.2382V9.23829V9.23837V9.23845V9.23851V9.23857V9.23864V9.2387L71.9953 9.23873H71.845L71.8456 9.24813C71.8512 9.33659 71.8512 9.4253 71.8456 9.51376ZM0.592245 21.9267V24.1526V21.9267ZM69.3208 9.47059L69.5897 9.2124H69.2946C68.9708 8.61479 68.5381 8.08174 68.0183 7.64041L67.9942 7.61997L67.9639 7.61098C67.5782 7.49635 67.235 7.27187 66.9769 6.96558L66.8802 6.8509L66.7655 6.94753C63.6998 9.53029 59.4692 11.2112 55.6829 12.2834C51.8994 13.3548 48.5751 13.8143 47.3335 13.9621L47.276 13.969L47.238 14.0127C45.1457 16.4183 42.2376 17.5802 38.9685 17.9271C35.6978 18.2741 32.0757 17.8037 28.575 16.9534C21.5736 15.2527 15.0922 12.0409 12.9486 10.8753L12.8727 10.8341L12.7989 10.879C11.1664 11.8725 9.07899 11.2793 7.44368 10.3571L7.28558 10.2679L7.2278 10.44L4.73598 17.8598L4.67561 18.0396L4.86443 18.0569L42.902 21.5566L42.902 21.5573H42.9158C42.9144 21.5573 42.9154 21.5574 42.9205 21.5579C42.9262 21.5584 42.9368 21.5595 42.9549 21.5614L42.9783 21.5639C43.0043 21.5667 43.037 21.5703 43.0756 21.5742C43.1782 21.5847 43.3234 21.5983 43.5092 21.6105C43.8807 21.635 44.4132 21.6542 45.0904 21.6333C46.4448 21.5917 48.3771 21.39 50.7556 20.7514C55.5138 19.474 62.052 16.4498 69.3208 9.47059ZM2.14166 13.4915L2.13777 13.5063L2.13692 13.5215C2.059 14.9165 2.07154 16.315 2.17447 17.7084L2.46629 17.745L5.65555 8.22367C5.65559 8.22354 5.65563 8.22341 5.65568 8.22328C5.71232 8.05751 5.80855 7.90767 5.93625 7.7866C6.06401 7.66547 6.21948 7.57672 6.38944 7.52803C6.56017 7.47979 6.74018 7.4734 6.91398 7.50941C7.08786 7.54545 7.25023 7.62284 7.38715 7.73484L7.39302 7.73964L7.39935 7.74383C7.39737 7.74251 7.40438 7.74782 7.43426 7.76991C7.45952 7.78859 7.49557 7.81503 7.54119 7.84773C7.6324 7.91313 7.76181 8.00352 7.9199 8.10708C8.23559 8.31389 8.66777 8.57462 9.13993 8.79359C9.61035 9.01174 10.13 9.19296 10.6185 9.2325C11.109 9.2722 11.5855 9.16957 11.9386 8.79842C12.1065 8.62505 12.3277 8.51165 12.5677 8.47621C12.8064 8.44097 13.0501 8.48484 13.2609 8.60084C13.2801 8.61294 13.3153 8.63295 13.358 8.65668C13.4126 8.6871 13.4895 8.72914 13.5873 8.78168C13.783 8.88679 14.0632 9.03432 14.4178 9.21542C15.1272 9.57764 16.135 10.0744 17.3611 10.635C19.813 11.7559 23.1405 13.133 26.7024 14.1991C30.2626 15.2648 34.0662 16.0225 37.4675 15.898C40.869 15.7735 43.8899 14.765 45.8494 12.2747L45.8495 12.2746C45.9407 12.1586 46.0547 12.0621 46.1847 11.991C46.3148 11.92 46.458 11.8758 46.6059 11.8613L46.6083 11.861C50.9494 11.3632 55.2102 10.3258 59.2905 8.77297L59.1922 8.48968L57.1863 9.12037L57.1862 9.1201L57.1777 9.12338C57.0635 9.16707 56.941 9.18496 56.819 9.17572L56.819 9.17563L56.8136 9.17541L56.7693 9.17368C56.2521 9.15355 52.7687 9.01797 48.6578 8.67806C44.3939 8.32551 39.4717 7.75435 36.4796 6.86894L36.3356 7.1233C36.9215 7.6609 37.5718 8.12491 38.2717 8.50491L38.2717 8.50498L38.2762 8.50724C39.8488 9.29378 40.5879 10.1418 40.9301 10.8211C41.2726 11.5009 41.225 12.0267 41.1981 12.181L41.1977 12.1839C41.1663 12.3888 41.0765 12.5805 40.9387 12.7365C40.801 12.8925 40.6211 13.0062 40.4202 13.0641C39.8744 13.218 38.2063 13.6641 36.3661 13.9255C35.4458 14.0562 34.4859 14.1402 33.6038 14.1192C32.7193 14.0981 31.9259 13.9717 31.3305 13.691L31.3297 13.6906C29.654 12.913 16.2302 6.93613 9.85129 4.09596C8.92092 3.68171 8.14041 3.3342 7.56807 3.07927L7.44082 3.02259L7.3749 3.14531C6.12239 5.47707 4.86659 7.8679 3.89881 9.77049C3.41498 10.7217 3.00275 11.5516 2.69881 12.1914C2.39803 12.8245 2.19587 13.2864 2.14166 13.4915ZM43.5196 25.2671L43.5201 25.2671C46.0633 25.1614 50.7068 24.4879 55.3957 22.8146C60.0818 21.1422 64.8367 18.4628 67.5728 14.3299L67.3523 14.1314C57.114 22.5793 48.651 23.8048 44.8096 23.8048L44.8085 23.8048C44.0657 23.8099 43.3237 23.7567 42.5894 23.6457L42.5894 23.6454L42.5805 23.6446L2.62417 20.0212L2.43487 20.0041L2.46217 20.1922L2.67356 21.6485C2.67832 21.6946 2.67823 21.741 2.67328 21.787L2.67242 21.795V21.803V23.0396V23.1731L2.80499 23.1886L20.0359 25.2044L20.1354 25.216L20.1843 25.1285L21.0066 23.6569L21.007 23.6562C21.1006 23.4864 21.2383 23.3443 21.406 23.2448C21.5735 23.1454 21.7648 23.0922 21.9602 23.0907H22.136C22.1543 23.0933 22.1956 23.0994 22.2586 23.1087C22.9902 23.2164 26.638 23.7535 30.8216 24.266C35.4502 24.8329 40.758 25.3728 43.5196 25.2671Z" fill="#76563C" stroke="white" stroke-width="0.3"></path>
</svg>
