<?xml version="1.0" encoding="UTF-8"?>
<svg xmlns="http://www.w3.org/2000/svg" width="31" height="30" viewBox="0 0 31 30" fill="none">
  <g id="Whatsapp">
    <path id="Vector" d="M15.8103 0C7.57914 0 0.870603 6.675 0.870603 14.865C0.870603 17.49 1.56407 20.04 2.86055 22.29L0.75 30L8.66457 27.93C10.8505 29.115 13.3078 29.745 15.8103 29.745C24.0415 29.745 30.75 23.07 30.75 14.88C30.75 10.905 29.1972 7.17 26.3781 4.365C23.559 1.545 19.8053 0 15.8103 0ZM15.8254 2.505C19.142 2.505 22.2475 3.795 24.5992 6.135C26.9359 8.475 28.2324 11.58 28.2324 14.88C28.2324 21.69 22.6545 27.225 15.8103 27.225C13.5791 27.225 11.3932 26.64 9.49372 25.5L9.04146 25.245L4.33794 26.475L5.5892 21.915L5.28769 21.435C4.05151 19.5 3.38819 17.205 3.38819 14.865C3.40327 8.055 8.96608 2.505 15.8254 2.505ZM10.5188 7.995C10.2776 7.995 9.8706 8.085 9.52387 8.46C9.19221 8.835 8.21231 9.75 8.21231 11.565C8.21231 13.395 9.55402 15.15 9.71985 15.405C9.9309 15.66 12.3731 19.41 16.1269 21C17.0163 21.405 17.7098 21.63 18.2525 21.795C19.142 22.08 19.956 22.035 20.6043 21.945C21.3279 21.84 22.8053 21.045 23.1219 20.175C23.4384 19.305 23.4384 18.57 23.348 18.405C23.2425 18.255 23.0013 18.165 22.6244 18C22.2475 17.79 20.4083 16.89 20.0766 16.77C19.7299 16.65 19.5188 16.59 19.2324 16.95C18.9912 17.325 18.2676 18.165 18.0565 18.405C17.8304 18.66 17.6193 18.69 17.2575 18.51C16.8656 18.315 15.6595 17.925 14.2425 16.665C13.1269 15.675 12.3882 14.46 12.1621 14.085C11.9812 13.725 12.147 13.5 12.3279 13.335C12.4937 13.17 12.7349 12.9 12.8857 12.675C13.0817 12.465 13.142 12.3 13.2626 12.06C13.3832 11.805 13.3229 11.595 13.2324 11.415C13.142 11.25 12.3882 9.39 12.0716 8.655C11.7701 7.935 11.4686 8.025 11.2274 8.01C11.0163 8.01 10.7751 7.995 10.5188 7.995Z" fill="#76563C"></path>
  </g>
</svg>
